<?xml version="1.0" encoding="utf-8"?>
<!-- Generator: Adobe Illustrator 24.1.2, SVG Export Plug-In . SVG Version: 6.00 Build 0)  -->
<svg version="1.1" id="Layer_1" xmlns="http://www.w3.org/2000/svg" xmlns:xlink="http://www.w3.org/1999/xlink" x="0px" y="0px"
	 viewBox="0 0 100 60" style="enable-background:new 0 0 100 60;" xml:space="preserve">
<style type="text/css">
	.st0{fill:#1E398C;}
	.st1{fill-rule:evenodd;clip-rule:evenodd;fill:#FFFFFF;}
	.st2{fill-rule:evenodd;clip-rule:evenodd;fill:#00ADEE;}
	.st3{fill:#F2F2F2;}
	.st4{fill:#4285F4;}
	.st5{fill:#34A853;}
	.st6{fill:#FABB05;}
	.st7{fill:#E94235;}
	.st8{fill:#0066B2;}
	.st9{fill:#F5F5F5;}
	.st10{fill:#F9A533;}
	.st11{fill:#E6E6E6;}
	.st12{fill-rule:evenodd;clip-rule:evenodd;fill:#FBB231;}
	.st13{fill-rule:evenodd;clip-rule:evenodd;fill:#EC1B2E;}
	.st14{fill:#FFFFFF;}
	.st15{fill:#008000;}
	.st16{fill:#4D4D4D;}
</style>
<g>
	<path class="st3" d="M95,60H5c-2.76,0-5-2.24-5-5V5c0-2.76,2.24-5,5-5h90c2.76,0,5,2.24,5,5v50C100,57.76,97.76,60,95,60z"/>
	<g>
		<g>
			<path class="st15" d="M40.59,38.99c-0.82,0.43-2.63,0.85-4.93,0.85c-6.06,0-9.74-3.79-9.74-9.6c0-6.28,4.36-10.08,10.19-10.08
				c2.29,0,3.93,0.48,4.64,0.85L40,23.79c-0.91-0.4-2.15-0.74-3.74-0.74c-3.88,0-6.68,2.43-6.68,7.02c0,4.19,2.46,6.88,6.65,6.88
				c1.42,0,2.89-0.28,3.79-0.71L40.59,38.99z"/>
			<path class="st15" d="M47.59,34.15l-1.64,5.41h-3.59l6.11-19.08h4.44l6.2,19.08h-3.74l-1.73-5.41H47.59z M53.05,31.51l-1.5-4.7
				c-0.37-1.16-0.68-2.46-0.96-3.57h-0.06c-0.28,1.1-0.57,2.43-0.91,3.57l-1.47,4.7H53.05z"/>
			<path class="st15" d="M61.7,35.76c1.13,0.65,2.83,1.22,4.61,1.22c2.24,0,3.48-1.05,3.48-2.6c0-1.45-0.96-2.29-3.4-3.17
				c-3.14-1.13-5.15-2.8-5.15-5.55c0-3.11,2.6-5.49,6.74-5.49c2.07,0,3.6,0.45,4.59,0.96l-0.85,2.8c-0.68-0.37-2.01-0.91-3.79-0.91
				c-2.21,0-3.17,1.19-3.17,2.29c0,1.47,1.1,2.15,3.65,3.14c3.31,1.24,4.92,2.92,4.92,5.66c0,3.06-2.32,5.72-7.25,5.72
				c-2.01,0-4.1-0.57-5.15-1.19L61.7,35.76z"/>
			<path class="st15" d="M79.96,20.47v7.64h8.07v-7.64h3.48v19.08h-3.48v-8.41h-8.07v8.41h-3.48V20.47H79.96z"/>
		</g>
		<path class="st15" d="M23.01,21.17h-5.14c0.42,0.89,0.7,1.73,1.12,2.52c0.14,0.19,0.51,0.37,0.79,0.37
			c1.03,0.05,2.05,0.05,3.18,0.05v2.9c-1.03,0-2.05-0.05-3.13,0c-0.28,0.05-0.79,0.28-0.89,0.56c-0.89,2.71-2.76,4.34-5.32,5.04
			c2.15,2.29,4.34,4.62,6.63,7c-0.65,0.65-1.26,1.35-1.96,2.05c-2.85-2.71-5.56-5.37-8.31-8.03c-0.42-0.42-0.93-0.7-1.49-1.12v-2.62
			c1.26,0,2.43,0.05,3.64,0c1.96-0.09,3.27-1.07,3.83-2.85H8.58v-2.94h7.47c-0.51-1.68-1.63-2.52-3.13-2.76
			c-1.45-0.23-2.9-0.19-4.39-0.23v-2.8h14.48V21.17z"/>
	</g>
</g>
</svg>
