<?xml version="1.0" encoding="utf-8"?>
<!-- Generator: Adobe Illustrator 24.1.2, SVG Export Plug-In . SVG Version: 6.00 Build 0)  -->
<svg version="1.1" id="Layer_1" xmlns="http://www.w3.org/2000/svg" xmlns:xlink="http://www.w3.org/1999/xlink" x="0px" y="0px"
	 viewBox="0 0 100 60" style="enable-background:new 0 0 100 60;" xml:space="preserve">
<style type="text/css">
	.st0{fill:#1E398C;}
	.st1{fill-rule:evenodd;clip-rule:evenodd;fill:#FFFFFF;}
	.st2{fill-rule:evenodd;clip-rule:evenodd;fill:#00ADEE;}
	.st3{fill:#F2F2F2;}
	.st4{fill:#4285F4;}
	.st5{fill:#34A853;}
	.st6{fill:#FABB05;}
	.st7{fill:#E94235;}
	.st8{fill:#0066B2;}
	.st9{fill:#F5F5F5;}
	.st10{fill:#F9A533;}
	.st11{fill:#E6E6E6;}
	.st12{fill-rule:evenodd;clip-rule:evenodd;fill:#FBB231;}
	.st13{fill-rule:evenodd;clip-rule:evenodd;fill:#EC1B2E;}
	.st14{fill:#FFFFFF;}
	.st15{fill:#008000;}
	.st16{fill:#4D4D4D;}
</style>
<g>
	<path class="st3" d="M95,60H5c-2.76,0-5-2.24-5-5V5c0-2.76,2.24-5,5-5h90c2.76,0,5,2.24,5,5v50C100,57.76,97.76,60,95,60z"/>
	<g>
		<g id="GPay-Light-themed-buttons_4_">
			<g id="GPAY---SVGs_4_" transform="translate(-185.000000, -400.000000)">
				<g id="GPay-Brand-Mark_4_" transform="translate(185.000000, 400.000000)">
					<g id="GPay_4_" transform="translate(0.261474, 0.261474)">
						<g id="Pay_4_" transform="translate(17.615069, 0.825706)">
							<path id="Fill-1_4_" d="M30.23,19.13v7h4.32c1.03,0,1.88-0.35,2.55-1.04c0.69-0.69,1.04-1.51,1.04-2.46
								c0-0.93-0.34-1.75-1.04-2.44c-0.67-0.71-1.52-1.06-2.55-1.06L30.23,19.13L30.23,19.13z M30.23,28.6v8.12h-2.58V16.67h6.84
								c1.74,0,3.21,0.58,4.43,1.74c1.24,1.16,1.85,2.57,1.85,4.23c0,1.7-0.62,3.12-1.85,4.26c-1.2,1.14-2.67,1.71-4.43,1.71
								L30.23,28.6L30.23,28.6z"/>
							<path id="Fill-3_4_" d="M43.38,32.52c0,0.67,0.28,1.23,0.86,1.68c0.57,0.45,1.24,0.67,2,0.67c1.08,0,2.05-0.4,2.9-1.2
								c0.85-0.8,1.28-1.74,1.28-2.83c-0.8-0.64-1.93-0.95-3.36-0.95c-1.05,0-1.92,0.25-2.62,0.76
								C43.73,31.15,43.38,31.77,43.38,32.52 M46.72,22.55c1.91,0,3.41,0.51,4.51,1.53c1.1,1.02,1.65,2.41,1.65,4.19v8.46h-2.47
								v-1.9h-0.11c-1.06,1.57-2.48,2.35-4.26,2.35c-1.51,0-2.78-0.45-3.8-1.34c-1.02-0.9-1.53-2.02-1.53-3.36
								c0-1.42,0.54-2.55,1.61-3.39c1.07-0.84,2.51-1.26,4.3-1.26c1.53,0,2.79,0.28,3.78,0.84v-0.59c0-0.9-0.35-1.66-1.06-2.28
								c-0.71-0.63-1.54-0.94-2.49-0.94c-1.44,0-2.58,0.61-3.42,1.82l-2.27-1.43C42.42,23.44,44.27,22.55,46.72,22.55"/>
							<g id="Group-7_4_" transform="translate(15.084923, 3.759447)">
								<polygon id="Fill-5_4_" points="51.95,19.24 43.35,39 40.69,39 43.88,32.09 38.22,19.24 41.02,19.24 45.12,29.09 
									45.17,29.09 49.15,19.24 								"/>
							</g>
						</g>
						<g id="G_4_">
							<path id="Fill-8_4_" class="st4" d="M37.43,27.67c0-0.81-0.07-1.59-0.2-2.34H26.35v4.44h6.23c-0.27,1.45-1.08,2.68-2.3,3.5
								v2.88H34C36.18,34.14,37.43,31.18,37.43,27.67"/>
							<path id="Fill-10_4_" class="st5" d="M26.35,38.93c3.11,0,5.73-1.02,7.64-2.78l-3.72-2.88c-1.03,0.7-2.37,1.1-3.93,1.1
								c-3.01,0-5.56-2.03-6.47-4.76h-3.83v2.97C17.95,36.34,21.85,38.93,26.35,38.93"/>
							<path id="Fill-12_4_" class="st6" d="M19.88,29.61c-0.23-0.7-0.36-1.44-0.36-2.21c0-0.77,0.13-1.51,0.36-2.21v-2.97h-3.83
								c-0.78,1.56-1.23,3.31-1.23,5.17c0,1.86,0.44,3.62,1.23,5.17L19.88,29.61z"/>
							<path id="Fill-14_4_" class="st7" d="M26.35,20.45c1.7,0,3.22,0.58,4.42,1.73v0l3.29-3.29c-2-1.86-4.61-3-7.72-3
								c-4.51,0-8.41,2.58-10.3,6.35l3.83,2.97C20.79,22.47,23.35,20.45,26.35,20.45"/>
						</g>
					</g>
				</g>
			</g>
		</g>
	</g>
</g>
</svg>
