<?xml version="1.0" encoding="utf-8"?>
<!-- Generator: Adobe Illustrator 24.1.2, SVG Export Plug-In . SVG Version: 6.00 Build 0)  -->
<svg version="1.1" id="Layer_1" xmlns="http://www.w3.org/2000/svg" xmlns:xlink="http://www.w3.org/1999/xlink" x="0px" y="0px"
	 viewBox="0 0 100 60" style="enable-background:new 0 0 100 60;" xml:space="preserve">
<style type="text/css">
	.st0{fill:#F2F2F2;}
	.st1{fill-rule:evenodd;clip-rule:evenodd;fill:#1E398C;}
	.st2{fill-rule:evenodd;clip-rule:evenodd;fill:#00ADEE;}
	.st3{fill:#4285F4;}
	.st4{fill:#34A853;}
	.st5{fill:#FABB05;}
	.st6{fill:#E94235;}
	.st7{fill:#0066B2;}
	.st8{fill:#1E398C;}
	.st9{fill:#F9A533;}
	.st10{fill-rule:evenodd;clip-rule:evenodd;fill:#FBB231;}
	.st11{fill-rule:evenodd;clip-rule:evenodd;fill:#EC1B2E;}
	.st12{fill-rule:evenodd;clip-rule:evenodd;fill:#FFFFFF;}
	.st13{fill:#FFFFFF;}
	.st14{fill:#008000;}
	.st15{fill:#4D4D4D;}
</style>
<g>
	<path class="st0" d="M95,60H5c-2.76,0-5-2.24-5-5V5c0-2.76,2.24-5,5-5h90c2.76,0,5,2.24,5,5v50C100,57.76,97.76,60,95,60z"/>
	<g>
		<g>
			<circle class="st10" cx="62.79" cy="30" r="19.06"/>
		</g>
		<g>
			<circle class="st11" cx="37.21" cy="30" r="19.06"/>
		</g>
		<g>
			<polygon class="st10" points="47.77,18.25 57.9,18.25 57.9,17.21 48.64,17.21 47.77,18.25 47.77,18.25 			"/>
		</g>
		<g>
			<polygon class="st10" points="46.25,20.55 57.9,20.55 57.9,19.52 46.86,19.52 46.25,20.55 46.25,20.55 			"/>
		</g>
		<g>
			<polygon class="st10" points="45.12,22.85 57.9,22.85 57.9,21.81 45.57,21.81 45.12,22.85 45.12,22.85 			"/>
		</g>
		<g>
			<polygon class="st10" points="44.34,25.15 57.9,25.15 57.9,24.11 44.66,24.11 44.34,25.15 44.34,25.15 			"/>
		</g>
		<g>
			<polygon class="st10" points="44.79,36.27 57.93,36.27 57.93,35.24 44.47,35.24 44.79,36.27 44.79,36.27 			"/>
		</g>
		<g>
			<polygon class="st10" points="45.76,38.58 57.93,38.58 57.93,37.54 45.28,37.54 45.76,38.58 45.76,38.58 			"/>
		</g>
		<g>
			<polygon class="st10" points="47.13,40.87 57.93,40.87 57.93,39.84 46.48,39.84 47.13,40.87 47.13,40.87 			"/>
		</g>
		<g>
			<polygon class="st10" points="49,43.17 57.93,43.17 57.93,42.13 48.1,42.13 49,43.17 49,43.17 			"/>
		</g>
		<g>
			<polygon class="st10" points="43.88,27.44 57.9,27.44 57.9,26.41 44.08,26.41 43.88,27.44 43.88,27.44 			"/>
		</g>
		<g>
			<polygon class="st10" points="52.42,33.98 57.77,33.98 57.77,32.94 52.62,32.94 52.42,33.98 52.42,33.98 			"/>
		</g>
		<g>
			<polygon class="st10" points="52.85,31.68 57.77,31.68 57.77,30.64 53.04,30.64 52.85,31.68 52.85,31.68 			"/>
		</g>
		<g>
			<polygon class="st10" points="43.53,30.64 44.92,30.64 44.92,31.68 43.6,31.68 43.53,30.64 43.53,30.64 			"/>
		</g>
		<g>
			<polygon class="st12" points="40.94,29.39 40.85,29.38 40.76,29.37 40.68,29.35 40.59,29.34 40.51,29.33 40.43,29.32 40.35,29.3 
				40.26,29.29 40.17,29.28 40.06,29.27 39.95,29.26 39.83,29.26 39.69,29.26 39.54,29.26 39.38,29.28 39.19,29.29 39.06,29.31 
				38.94,29.33 38.83,29.37 38.73,29.41 38.64,29.45 38.56,29.5 38.5,29.57 38.44,29.62 38.4,29.69 38.37,29.77 38.35,29.84 
				38.35,29.92 38.37,30 38.4,30.09 38.45,30.17 38.51,30.25 38.64,30.38 38.8,30.47 38.98,30.56 39.17,30.63 39.38,30.69 
				39.59,30.76 39.8,30.84 40.01,30.92 40.2,31.03 40.38,31.17 40.54,31.33 40.68,31.53 40.78,31.77 40.84,32.06 40.87,32.41 
				40.84,32.81 40.8,33.12 40.72,33.38 40.62,33.62 40.49,33.84 40.34,34.02 40.17,34.18 39.99,34.32 39.79,34.45 39.59,34.54 
				39.38,34.63 39.16,34.69 38.93,34.74 38.71,34.78 38.5,34.8 38.29,34.81 38.09,34.82 37.81,34.82 37.56,34.81 37.33,34.81 
				37.12,34.81 36.93,34.8 36.75,34.79 36.6,34.77 36.45,34.76 36.32,34.74 36.19,34.72 36.07,34.7 35.96,34.67 35.85,34.64 
				35.75,34.6 35.65,34.56 35.54,34.52 35.83,33.1 35.88,33.12 35.96,33.13 36.05,33.16 36.15,33.19 36.27,33.21 36.4,33.24 
				36.54,33.27 36.7,33.3 36.86,33.32 37.02,33.35 37.2,33.37 37.38,33.39 37.56,33.39 37.75,33.4 37.94,33.4 38.12,33.39 
				38.31,33.35 38.46,33.3 38.57,33.23 38.66,33.14 38.73,33.05 38.78,32.95 38.81,32.85 38.84,32.75 38.85,32.56 38.79,32.4 
				38.68,32.27 38.52,32.16 38.33,32.07 38.1,31.97 37.85,31.88 37.6,31.78 37.34,31.66 37.1,31.53 36.88,31.36 36.67,31.16 
				36.51,30.92 36.39,30.63 36.33,30.28 36.34,29.87 36.37,29.62 36.42,29.38 36.48,29.16 36.56,28.96 36.66,28.76 36.78,28.59 
				36.91,28.43 37.07,28.29 37.26,28.17 37.47,28.07 37.7,27.97 37.96,27.9 38.24,27.84 38.56,27.8 38.91,27.77 39.29,27.77 
				39.52,27.77 39.74,27.77 39.94,27.78 40.12,27.78 40.28,27.8 40.43,27.81 40.56,27.82 40.68,27.84 40.78,27.85 40.87,27.87 
				40.96,27.88 41.04,27.89 41.1,27.91 41.16,27.91 41.22,27.93 41.27,27.93 40.94,29.39 40.94,29.39 			"/>
		</g>
		<g>
			<path class="st13" d="M37.81,34.86l-0.26-0.01h-0.22l-0.41-0.01l-0.33-0.03l-0.15-0.02l-0.13-0.01l-0.13-0.03l-0.12-0.02
				l-0.11-0.03l-0.11-0.03l-0.35-0.13l0.3-1.49l0.17,0.04l0.09,0.03l0.49,0.11l0.48,0.08l0.35,0.04l0.37,0.01h0.19l0.19-0.01
				l0.18-0.04l0.14-0.05l0.11-0.07l0.08-0.08l0.06-0.09l0.05-0.1l0.06-0.19l0.01-0.17l-0.05-0.15l-0.1-0.12l-0.16-0.11l-0.19-0.09
				L38.09,32l-0.25-0.09l-0.25-0.1l-0.26-0.12l-0.25-0.14l-0.23-0.17l-0.21-0.2l-0.17-0.25l-0.12-0.3l-0.06-0.35l0.01-0.42
				l0.03-0.25l0.05-0.24l0.07-0.22l0.08-0.21l0.1-0.2l0.12-0.17l0.14-0.16l0.16-0.15l0.19-0.13l0.21-0.11l0.23-0.1l0.26-0.07
				l0.29-0.06l0.32-0.05l0.35-0.03l0.62-0.01l0.6,0.02l0.67,0.06l0.09,0.02l0.43,0.07l-0.34,1.52l-0.12-0.01l-0.68-0.1l-0.34-0.02
				h-0.13l-0.15,0.01l-0.35,0.03l-0.25,0.04l-0.2,0.07l-0.09,0.04l-0.08,0.05l-0.11,0.11l-0.04,0.07l-0.03,0.06l-0.01,0.07l0,0.07
				L38.41,30l0.02,0.08l0.05,0.08l0.06,0.08l0.12,0.12l0.15,0.09l0.18,0.08l0.19,0.07l0.42,0.13l0.21,0.08l0.21,0.08l0.2,0.11
				l0.18,0.14l0.16,0.16l0.14,0.2l0.11,0.25l0.07,0.3l0.03,0.35l-0.03,0.41l-0.05,0.31l-0.08,0.27l-0.1,0.25l-0.13,0.22l-0.15,0.19
				l-0.17,0.16l-0.18,0.14l-0.2,0.12l-0.21,0.1l-0.21,0.08l-0.22,0.07l-0.23,0.05l-0.22,0.04l-0.22,0.02l-0.21,0.01l-0.2,0.01H37.81
				z M37.56,34.78l0.26,0.01h0.28l0.2-0.01l0.21-0.01l0.21-0.02l0.22-0.04l0.22-0.05l0.22-0.06l0.21-0.08l0.2-0.1l0.2-0.12
				l0.18-0.14L40.32,34l0.14-0.18l0.13-0.21l0.1-0.24l0.08-0.26l0.04-0.3l0.03-0.4l-0.03-0.34l-0.06-0.28l-0.1-0.24l-0.13-0.19
				l-0.16-0.16l-0.18-0.13l-0.19-0.11l-0.2-0.08l-0.21-0.08l-0.42-0.13l-0.19-0.07l-0.18-0.08l-0.16-0.1l-0.13-0.13l-0.07-0.09
				l-0.06-0.1l-0.03-0.08l-0.02-0.09l0-0.09l0.02-0.09l0.03-0.07l0.05-0.08l0.12-0.12l0.09-0.06l0.09-0.05l0.1-0.04l0.11-0.04
				l0.26-0.04l0.51-0.03h0.14l0.34,0.02l0.74,0.11l0.31-1.38l-0.01,0l-0.06-0.01l-0.05-0.01l-0.32-0.06l-0.5-0.05l-0.16-0.01
				l-0.6-0.02h-0.24l-0.38,0.01l-0.35,0.03l-0.31,0.04l-0.29,0.06l-0.25,0.07l-0.23,0.1l-0.2,0.1l-0.18,0.12l-0.16,0.14l-0.13,0.16
				l-0.11,0.16l-0.1,0.19l-0.08,0.2l-0.06,0.22l-0.04,0.23l-0.03,0.25l-0.01,0.41l0.06,0.34l0.11,0.28l0.16,0.24l0.2,0.19l0.22,0.16
				l0.24,0.13l0.25,0.11l0.25,0.1l0.25,0.09l0.23,0.1l0.19,0.1l0.17,0.12l0.12,0.14l0.06,0.17l-0.01,0.19l-0.03,0.1l-0.03,0.1
				l-0.05,0.11l-0.07,0.09l-0.09,0.09l-0.12,0.08l-0.15,0.05l-0.19,0.04l-0.19,0.01h-0.19l-0.37-0.01l-0.36-0.04l-0.48-0.08
				l-0.5-0.11l-0.18-0.05l-0.28,1.35l0.29,0.11l0.1,0.02l0.11,0.03l0.12,0.02l0.12,0.03l0.13,0.01l0.15,0.02l0.33,0.03l0.4,0.01
				H37.56z"/>
		</g>
		<g>
			<polygon class="st12" points="42.46,26.34 44.24,26.34 43.98,27.9 45.05,27.9 44.82,29.35 43.69,29.32 43.07,32.91 43.07,33.04 
				43.1,33.15 43.16,33.23 43.25,33.3 43.36,33.35 43.49,33.39 43.63,33.41 43.79,33.42 43.93,33.42 44.06,33.41 44.17,33.39 
				44.28,33.36 44.36,33.33 44.42,33.32 44.46,33.3 44.47,33.3 44.24,34.49 44.2,34.52 44.15,34.55 44.11,34.58 44.06,34.6 
				44.02,34.62 43.97,34.64 43.91,34.66 43.85,34.68 43.79,34.7 43.72,34.71 43.65,34.72 43.57,34.74 43.49,34.75 43.39,34.76 
				43.29,34.77 43.18,34.79 42.69,34.79 42.43,34.77 42.21,34.74 42,34.7 41.83,34.66 41.68,34.6 41.56,34.54 41.45,34.46 
				41.36,34.38 41.3,34.29 41.25,34.18 41.22,34.07 41.2,33.95 41.2,33.81 41.2,33.67 41.22,33.52 41.24,33.36 42.46,26.34 
				42.46,26.34 			"/>
		</g>
		<g>
			<path class="st13" d="M42.69,34.82l-0.26-0.02l-0.23-0.03l-0.21-0.04l-0.18-0.05l-0.15-0.06l-0.13-0.07l-0.11-0.08l-0.09-0.09
				l-0.07-0.09l-0.05-0.12l-0.03-0.11l-0.02-0.13l-0.01-0.14l0-0.14l0.04-0.31l1.23-7.05h1.86l-0.26,1.56h1.07l-0.24,1.53
				l-1.13-0.03l-0.61,3.56l-0.01,0.12l0.03,0.1l0.06,0.08l0.07,0.06l0.11,0.04l0.13,0.04l0.14,0.02l0.15,0.01l0.14-0.01l0.13-0.01
				l0.11-0.02l0.29-0.09l0.07-0.03l-0.24,1.28l-0.06,0.04l-0.14,0.08l-0.1,0.04l-0.18,0.06l-0.31,0.05l-0.31,0.04L42.69,34.82z
				 M42.49,26.38l-1.22,6.99l-0.04,0.31l0,0.14l0.01,0.13l0.02,0.12l0.03,0.1l0.04,0.11l0.06,0.08l0.08,0.08l0.1,0.07l0.12,0.06
				l0.14,0.06l0.17,0.04l0.2,0.04l0.22,0.03l0.26,0.02l0.49,0l0.54-0.08l0.06-0.01l0.23-0.08l0.04-0.02l0.16-0.1l0.21-1.12
				l-0.13,0.04l-0.1,0.03l-0.12,0.02l-0.13,0.01l-0.14,0.01l-0.16-0.01l-0.14-0.03l-0.13-0.04l-0.13-0.05l-0.08-0.07l-0.08-0.1
				l-0.03-0.12l0.01-0.13l0.62-3.62l1.13,0.03l0.22-1.38h-1.07l0.26-1.56H42.49z"/>
		</g>
		<g>
			<polygon class="st12" points="46.48,31.78 46.46,31.89 46.45,32 46.46,32.13 46.49,32.25 46.53,32.37 46.59,32.49 46.66,32.61 
				46.73,32.72 46.82,32.83 46.92,32.92 47.02,33.02 47.14,33.1 47.25,33.17 47.38,33.23 47.51,33.27 47.64,33.3 47.81,33.32 
				47.97,33.34 48.14,33.36 48.3,33.37 48.47,33.38 48.64,33.38 48.81,33.37 48.98,33.36 49.16,33.33 49.33,33.3 49.51,33.26 
				49.68,33.21 49.86,33.13 50.05,33.06 50.23,32.95 50.42,32.85 50.16,34.43 50.06,34.48 49.95,34.53 49.85,34.57 49.76,34.61 
				49.66,34.64 49.56,34.67 49.45,34.7 49.34,34.72 49.23,34.74 49.1,34.75 48.96,34.76 48.82,34.77 48.65,34.78 48.48,34.78 
				48.28,34.79 48.06,34.79 47.75,34.78 47.43,34.75 47.11,34.7 46.78,34.63 46.47,34.53 46.17,34.41 45.88,34.25 45.61,34.06 
				45.36,33.84 45.14,33.58 44.95,33.28 44.8,32.94 44.69,32.56 44.62,32.13 44.6,31.66 44.63,31.13 44.66,30.92 44.69,30.68 
				44.75,30.43 44.82,30.16 44.91,29.89 45.03,29.61 45.18,29.33 45.36,29.06 45.56,28.8 45.81,28.56 46.1,28.34 46.42,28.14 
				46.79,27.98 47.21,27.87 47.67,27.79 48.19,27.77 48.44,27.77 48.71,27.8 48.97,27.84 49.23,27.91 49.49,28 49.74,28.12 
				49.97,28.27 50.19,28.45 50.38,28.67 50.54,28.93 50.67,29.23 50.76,29.57 50.81,29.95 50.82,30.39 50.77,30.88 50.68,31.42 
				50.64,31.81 45.96,31.81 46.25,30.54 49.07,30.54 49.08,30.38 49.07,30.23 49.06,30.09 49.04,29.96 48.99,29.84 48.95,29.73 
				48.88,29.63 48.82,29.54 48.74,29.46 48.66,29.4 48.56,29.34 48.46,29.29 48.36,29.25 48.26,29.23 48.15,29.21 48.03,29.19 
				47.91,29.2 47.79,29.22 47.68,29.24 47.58,29.28 47.47,29.33 47.37,29.39 47.27,29.46 47.19,29.54 47.11,29.63 47.03,29.73 
				46.96,29.83 46.9,29.94 46.84,30.05 46.8,30.18 46.76,30.31 46.73,30.45 46.48,31.78 46.48,31.78 			"/>
		</g>
		<g>
			<path class="st13" d="M48.06,34.82l-0.32-0.01l-0.32-0.03l-0.32-0.05l-0.33-0.08l-0.32-0.1l-0.31-0.12l-0.29-0.16l-0.27-0.19
				l-0.25-0.22l-0.22-0.27l-0.19-0.3l-0.16-0.35l-0.11-0.38l-0.07-0.44l-0.02-0.48l0.03-0.53l0.03-0.21l0.04-0.24l0.05-0.25
				l0.07-0.27l0.1-0.28L45,29.6l0.15-0.29l0.18-0.27l0.21-0.26l0.25-0.25l0.29-0.22l0.33-0.2l0.38-0.16l0.42-0.12l0.47-0.08
				l0.53-0.03l0.25,0.01l0.27,0.03l0.27,0.05l0.27,0.06l0.26,0.1l0.25,0.12l0.24,0.16l0.22,0.18l0.2,0.22l0.16,0.26l0.13,0.3
				l0.09,0.35l0.05,0.39l0.01,0.44l-0.05,0.49l-0.1,0.54l-0.03,0.42H46.5l-0.01,0.05l-0.01,0.11l0.01,0.12l0.03,0.12l0.04,0.12
				l0.05,0.11l0.07,0.12l0.08,0.11l0.09,0.11l0.2,0.19l0.11,0.07l0.11,0.07l0.12,0.06l0.13,0.04l0.12,0.02l0.17,0.03l0.33,0.04
				l0.17,0.01l0.17,0.01h0.17l0.17-0.01l0.17-0.01l0.17-0.03l0.17-0.03l0.18-0.04l0.17-0.06l0.36-0.15l0.43-0.25l-0.27,1.68
				l-0.22,0.11l-0.3,0.11l-0.1,0.03l-0.1,0.03l-0.23,0.04l-0.41,0.04l-0.17,0.01h-0.18l-0.2,0.01H48.06z M48.19,27.8l-0.52,0.03
				l-0.46,0.08l-0.41,0.12l-0.37,0.16l-0.32,0.19l-0.28,0.22l-0.25,0.24l-0.2,0.25l-0.18,0.27l-0.15,0.28l-0.11,0.27l-0.1,0.27
				l-0.07,0.27l-0.05,0.25l-0.04,0.24l-0.03,0.2l-0.03,0.53l0.02,0.47l0.07,0.43l0.11,0.38l0.15,0.34l0.18,0.29l0.22,0.26l0.25,0.21
				l0.27,0.18l0.29,0.16l0.3,0.12l0.31,0.1l0.32,0.08l0.32,0.04l0.32,0.03l0.52,0.01l0.2-0.01h0.17l0.17-0.01l0.41-0.04l0.22-0.04
				l0.1-0.03l0.2-0.06l0.2-0.08l0.19-0.09l0.24-1.49l-0.3,0.17l-0.37,0.15l-0.18,0.06l-0.18,0.04l-0.17,0.03l-0.17,0.03l-0.18,0.01
				l-0.17,0.01h-0.17l-0.17-0.01l-0.17-0.01l-0.33-0.04l-0.17-0.03l-0.13-0.03l-0.13-0.05l-0.13-0.06l-0.12-0.07L47,33.05l-0.11-0.1
				l-0.1-0.1l-0.09-0.11l-0.08-0.11l-0.07-0.12l-0.05-0.12l-0.05-0.12l-0.03-0.13l-0.01-0.13l0.01-0.12l0.01-0.04h-0.52l0.31-1.34
				h0.46l0.04-0.2l0.04-0.13l0.05-0.13l0.12-0.23L47,29.71l0.08-0.1l0.09-0.09l0.09-0.08l0.1-0.07l0.1-0.06l0.11-0.05l0.11-0.04
				l0.11-0.03l0.12-0.02l0.13-0.01l0.12,0.01l0.11,0.02l0.11,0.03l0.11,0.04l0.1,0.05l0.1,0.06l0.09,0.07l0.08,0.08l0.13,0.19
				l0.05,0.12l0.05,0.12l0.03,0.13l0.01,0.15l0.01,0.16l-0.02,0.2h-2.36l-0.23,1.19h4.09l0.03-0.36l0.1-0.54l0.04-0.49l-0.01-0.43
				l-0.05-0.38l-0.09-0.34l-0.13-0.29l-0.16-0.25l-0.19-0.21l-0.21-0.18l-0.23-0.15l-0.25-0.11l-0.25-0.1l-0.26-0.06l-0.26-0.04
				l-0.26-0.03L48.19,27.8z M46,31.77l0.44,0l0.23-1.19h-0.39L46,31.77z M46.76,30.51h2.27l0.01-0.13l-0.01-0.15l-0.01-0.14
				L49,29.97l-0.09-0.22l-0.12-0.18l-0.07-0.07l-0.08-0.06l-0.09-0.06l-0.09-0.05l-0.1-0.04l-0.1-0.02l-0.11-0.02l-0.11-0.01
				l-0.12,0.01l-0.11,0.02l-0.11,0.03l-0.11,0.04l-0.11,0.05l-0.09,0.06l-0.09,0.07l-0.08,0.07l-0.08,0.09l-0.08,0.09l-0.07,0.1
				l-0.11,0.22l-0.04,0.12l-0.04,0.13L46.76,30.51z"/>
		</g>
		<g>
			<polygon class="st12" points="61.81,28.29 61.73,28.24 61.65,28.2 61.56,28.16 61.46,28.11 61.36,28.07 61.25,28.04 61.14,28 
				61.03,27.96 60.91,27.93 60.78,27.9 60.65,27.87 60.51,27.86 60.37,27.84 60.22,27.83 60.06,27.83 59.9,27.83 59.74,27.83 
				59.58,27.84 59.4,27.86 59.22,27.89 59.04,27.95 58.86,28.02 58.68,28.11 58.5,28.22 58.33,28.36 58.16,28.53 58,28.74 
				57.85,28.97 57.7,29.26 57.57,29.58 57.45,29.94 57.34,30.35 57.31,30.58 57.28,30.81 57.27,31.03 57.27,31.25 57.29,31.47 
				57.34,31.68 57.4,31.87 57.47,32.06 57.56,32.23 57.68,32.4 57.81,32.55 57.97,32.68 58.14,32.8 58.34,32.9 58.56,32.98 
				58.8,33.04 58.89,33.06 58.98,33.08 59.1,33.09 59.23,33.1 59.37,33.12 59.52,33.12 59.68,33.12 59.84,33.1 60.01,33.08 
				60.17,33.05 60.33,33.01 60.49,32.95 60.66,32.88 60.8,32.8 60.94,32.7 61.07,32.58 60.78,34.3 60.74,34.33 60.7,34.37 
				60.65,34.41 60.59,34.45 60.52,34.5 60.43,34.55 60.33,34.59 60.21,34.63 60.06,34.68 59.9,34.71 59.7,34.74 59.48,34.76 
				59.23,34.77 58.94,34.78 58.61,34.77 58.25,34.76 57.95,34.72 57.66,34.66 57.36,34.56 57.07,34.43 56.78,34.28 56.51,34.09 
				56.26,33.86 56.02,33.6 55.81,33.32 55.63,32.99 55.47,32.63 55.36,32.24 55.28,31.81 55.25,31.35 55.27,30.85 55.34,30.32 
				55.39,30.05 55.45,29.8 55.51,29.55 55.58,29.31 55.65,29.08 55.73,28.86 55.81,28.65 55.9,28.45 56,28.25 56.1,28.06 
				56.21,27.88 56.32,27.71 56.44,27.55 56.57,27.4 56.69,27.26 56.83,27.12 56.98,26.99 57.13,26.87 57.28,26.76 57.44,26.66 
				57.61,26.56 57.79,26.48 57.97,26.4 58.15,26.33 58.35,26.27 58.55,26.22 58.76,26.17 58.98,26.13 59.2,26.1 59.43,26.07 
				59.66,26.06 59.9,26.05 60.11,26.06 60.31,26.07 60.5,26.09 60.69,26.12 60.87,26.14 61.05,26.18 61.21,26.22 61.37,26.25 
				61.52,26.29 61.65,26.33 61.77,26.37 61.87,26.41 61.96,26.44 62.04,26.47 62.1,26.49 62.13,26.51 61.81,28.29 61.81,28.29 			
				"/>
		</g>
		<g>
			<path class="st13" d="M58.94,34.82l-0.33-0.01l-0.36-0.02l-0.3-0.03l-0.3-0.06l-0.3-0.1l-0.3-0.13l-0.29-0.16l-0.27-0.2
				l-0.26-0.23l-0.24-0.26l-0.21-0.29l-0.18-0.33l-0.16-0.36l-0.12-0.4l-0.08-0.43l-0.03-0.46l0.01-0.5l0.07-0.54l0.05-0.27
				l0.06-0.26l0.13-0.49l0.07-0.23l0.17-0.44l0.09-0.2l0.1-0.2l0.1-0.19l0.11-0.18l0.23-0.33l0.13-0.16l0.13-0.14l0.14-0.14
				l0.15-0.13l0.15-0.12l0.16-0.11l0.16-0.1l0.18-0.1l0.18-0.08l0.18-0.08l0.19-0.07l0.2-0.07l0.2-0.05l0.21-0.05l0.22-0.04
				l0.22-0.03l0.23-0.03l0.23-0.01l0.25-0.01l0.21,0.01l0.2,0.01l0.19,0.02l0.37,0.05l0.18,0.04l0.17,0.03l0.3,0.08l0.25,0.08
				l0.4,0.15l-0.34,1.86l-0.13-0.07l-0.27-0.13l-0.09-0.04l-0.33-0.11l-0.12-0.03l-0.25-0.05l-0.13-0.02l-0.29-0.03l-0.47,0
				l-0.16,0.01l-0.17,0.02l-0.18,0.03l-0.18,0.05l-0.18,0.07l-0.18,0.09l-0.18,0.11l-0.17,0.14l-0.16,0.16l-0.16,0.2l-0.15,0.24
				l-0.14,0.28l-0.13,0.32l-0.12,0.36l-0.1,0.41l-0.04,0.23l-0.03,0.22l-0.01,0.22l0.01,0.22l0.02,0.22l0.04,0.2l0.06,0.19
				l0.07,0.19l0.09,0.17l0.11,0.16l0.13,0.14l0.15,0.13l0.17,0.11l0.2,0.09l0.22,0.08l0.42,0.09l0.38,0.04l0.31,0l0.16-0.01
				L60,33.05l0.16-0.03l0.16-0.04l0.16-0.05l0.16-0.07l0.14-0.08l0.13-0.1l0.13-0.11l0.06,0.03l-0.29,1.73l-0.14,0.12l-0.13,0.09
				l-0.1,0.05l-0.1,0.05l-0.27,0.09l-0.17,0.03l-0.42,0.05l-0.25,0.01L58.94,34.82z M59.9,26.09l-0.24,0.01l-0.23,0.01l-0.23,0.03
				l-0.22,0.03l-0.22,0.04l-0.2,0.04l-0.2,0.05l-0.2,0.06l-0.18,0.07l-0.18,0.08l-0.17,0.08l-0.17,0.1l-0.16,0.1l-0.15,0.11
				L57,27.02l-0.15,0.13l-0.13,0.13l-0.13,0.14l-0.13,0.15l-0.23,0.33l-0.11,0.18l-0.1,0.18l-0.1,0.2l-0.09,0.2l-0.08,0.21
				l-0.08,0.22l-0.07,0.22l-0.13,0.49l-0.06,0.26l-0.05,0.26l-0.07,0.53l-0.01,0.5l0.03,0.45l0.08,0.43l0.11,0.39l0.15,0.36
				l0.18,0.32l0.21,0.29l0.24,0.25l0.25,0.22l0.27,0.19l0.28,0.15l0.29,0.13l0.29,0.1l0.29,0.06l0.29,0.03l0.36,0.02l0.33,0.01
				l0.29-0.01l0.25-0.01l0.41-0.05l0.17-0.03l0.26-0.08l0.1-0.04l0.09-0.04l0.12-0.09l0.11-0.1l0.27-1.6l-0.05,0.05l-0.14,0.1
				l-0.15,0.09l-0.16,0.07l-0.16,0.05l-0.16,0.05l-0.17,0.03l-0.17,0.02l-0.16,0.01l-0.31,0l-0.39-0.04l-0.18-0.04l-0.24-0.06
				l-0.22-0.09l-0.2-0.1l-0.18-0.12l-0.16-0.14l-0.14-0.15l-0.12-0.17l-0.1-0.18l-0.07-0.2l-0.06-0.2l-0.05-0.21l-0.02-0.22
				l-0.01-0.22l0.01-0.23l0.03-0.23l0.04-0.23l0.1-0.41l0.12-0.36l0.14-0.32l0.14-0.29l0.16-0.24l0.16-0.21l0.17-0.17l0.18-0.14
				l0.18-0.12l0.18-0.09l0.18-0.07l0.18-0.05l0.18-0.03l0.18-0.02l0.17-0.01l0.48,0l0.3,0.03l0.14,0.02l0.26,0.05l0.12,0.03
				l0.34,0.12l0.1,0.04l0.31,0.15l0.31-1.7l-0.01,0l-0.06-0.03l-0.52-0.17l-0.3-0.08l-0.17-0.03l-0.17-0.04l-0.37-0.05l-0.19-0.02
				l-0.2-0.01L59.9,26.09z"/>
		</g>
		<g>
			<polygon class="st12" points="77.65,34.79 75.86,34.79 75.99,34.07 75.99,34.01 75.89,34.14 75.78,34.25 75.67,34.36 
				75.56,34.45 75.44,34.53 75.32,34.6 75.21,34.66 75.09,34.72 74.96,34.76 74.84,34.79 74.72,34.83 74.59,34.85 74.46,34.86 
				74.34,34.88 74.21,34.88 74.08,34.88 73.75,34.86 73.44,34.79 73.16,34.68 72.9,34.53 72.67,34.34 72.46,34.13 72.28,33.89 
				72.13,33.62 72,33.33 71.9,33.03 71.83,32.71 71.77,32.38 71.75,32.05 71.76,31.72 71.79,31.39 71.85,31.06 71.95,30.68 
				72.06,30.32 72.2,30 72.36,29.69 72.53,29.4 72.72,29.14 72.92,28.91 73.13,28.7 73.36,28.51 73.59,28.35 73.84,28.21 
				74.08,28.1 74.34,28.01 74.6,27.95 74.85,27.91 75.12,27.9 75.3,27.91 75.48,27.93 75.65,27.96 75.81,28 75.95,28.05 
				76.08,28.11 76.21,28.18 76.33,28.25 76.43,28.33 76.53,28.41 76.61,28.5 76.69,28.58 76.75,28.67 76.81,28.75 76.86,28.83 
				76.9,28.9 76.9,28.9 77.35,26.38 79.1,26.38 77.65,34.79 77.65,34.79 			"/>
		</g>
		<g>
			<path class="st13" d="M74.08,34.92l-0.34-0.03l-0.31-0.07l-0.29-0.11l-0.26-0.15l-0.24-0.19l-0.21-0.22l-0.18-0.24l-0.16-0.27
				l-0.13-0.29l-0.1-0.31l-0.07-0.32l-0.05-0.33l-0.02-0.33l0.01-0.34l0.03-0.33l0.06-0.33l0.1-0.38l0.12-0.36l0.14-0.33l0.16-0.31
				l0.17-0.29l0.2-0.26l0.2-0.23l0.21-0.21l0.23-0.19l0.24-0.16l0.25-0.14l0.25-0.11l0.26-0.09l0.26-0.06l0.26-0.04l0.27-0.01
				l0.19,0.01l0.18,0.02l0.17,0.03l0.16,0.05l0.15,0.05l0.13,0.06l0.13,0.07l0.12,0.07l0.11,0.08l0.1,0.09l0.09,0.09l0.08,0.08
				l0.07,0.09l0.1,0.15l0.44-2.45h1.82l-0.01,0.04l-1.46,8.44h-1.86l0.13-0.7l-0.03,0.03l-0.11,0.12l-0.11,0.1l-0.12,0.09
				l-0.12,0.08l-0.12,0.07l-0.24,0.12l-0.13,0.05l-0.25,0.07l-0.26,0.04l-0.12,0.01l-0.13,0.01H74.08z M75.12,27.94l-0.26,0.01
				l-0.25,0.04l-0.25,0.06l-0.25,0.09l-0.24,0.11l-0.24,0.14l-0.24,0.16l-0.22,0.18l-0.21,0.21l-0.2,0.23l-0.19,0.26l-0.16,0.29
				l-0.16,0.31l-0.13,0.32l-0.11,0.36l-0.1,0.38l-0.06,0.33l-0.03,0.33l-0.01,0.33l0.02,0.33l0.05,0.32l0.07,0.31l0.1,0.3l0.13,0.29
				l0.15,0.27l0.18,0.23l0.2,0.22l0.23,0.18l0.25,0.14l0.28,0.11l0.3,0.07l0.33,0.02l0.13,0l0.13-0.01l0.12-0.01l0.26-0.04
				l0.24-0.06l0.12-0.04l0.23-0.11l0.11-0.07l0.11-0.08l0.11-0.09l0.11-0.1l0.11-0.11l0.1-0.13l0.07,0.02v0.06l-0.12,0.68h1.71
				l1.44-8.34h-1.67l-0.44,2.5l-0.07,0.01l-0.04-0.08l-0.11-0.16l-0.06-0.08l-0.16-0.16l-0.09-0.08l-0.1-0.08l-0.11-0.07l-0.13-0.07
				l-0.13-0.06l-0.14-0.05l-0.15-0.04l-0.16-0.03l-0.18-0.02L75.12,27.94z"/>
		</g>
		<g>
			<polygon class="st10" points="74.73,33.23 74.91,33.22 75.08,33.18 75.23,33.13 75.38,33.06 75.52,32.99 75.65,32.89 
				75.77,32.78 75.88,32.67 75.97,32.54 76.06,32.4 76.15,32.25 76.22,32.09 76.28,31.93 76.33,31.77 76.38,31.59 76.41,31.42 
				76.44,31.24 76.46,31.05 76.46,30.88 76.46,30.7 76.44,30.53 76.41,30.37 76.37,30.22 76.31,30.07 76.25,29.94 76.17,29.82 
				76.09,29.71 75.99,29.62 75.88,29.55 75.77,29.5 75.65,29.46 75.51,29.45 75.34,29.46 75.18,29.49 75.03,29.54 74.88,29.6 
				74.75,29.69 74.62,29.79 74.51,29.9 74.4,30.02 74.31,30.16 74.22,30.31 74.13,30.47 74.06,30.63 74,30.81 73.95,30.98 
				73.9,31.17 73.86,31.35 73.83,31.64 73.84,31.95 73.88,32.26 73.97,32.56 74.1,32.83 74.26,33.04 74.47,33.18 74.73,33.23 
				74.73,33.23 			"/>
		</g>
		<g>
			<polygon class="st12" points="35.24,33.36 34.98,34.79 33.36,34.79 33.41,34.52 33.44,34.29 33.47,34.11 33.49,34.01 33.4,34.11 
				33.3,34.22 33.18,34.31 33.04,34.4 32.89,34.49 32.73,34.57 32.56,34.65 32.39,34.71 32.2,34.77 32.01,34.81 31.83,34.85 
				31.63,34.88 31.45,34.89 31.26,34.9 31.08,34.88 30.91,34.85 30.68,34.79 30.48,34.73 30.3,34.65 30.14,34.55 29.99,34.45 
				29.87,34.33 29.76,34.21 29.67,34.08 29.6,33.95 29.53,33.8 29.48,33.66 29.44,33.52 29.42,33.37 29.4,33.23 29.38,33.08 
				29.38,32.94 29.4,32.69 29.44,32.45 29.51,32.23 29.59,32.01 29.69,31.8 29.81,31.62 29.94,31.44 30.1,31.28 30.26,31.13 
				30.44,30.99 30.62,30.87 30.82,30.77 31.02,30.68 31.24,30.61 31.45,30.55 31.68,30.51 31.69,30.51 31.72,30.5 31.77,30.5 
				31.84,30.49 31.92,30.48 32.01,30.47 32.1,30.46 32.21,30.45 32.32,30.43 32.43,30.42 32.55,30.41 32.65,30.4 32.75,30.4 
				32.85,30.39 32.94,30.38 33.01,30.38 33.16,30.38 33.31,30.39 33.45,30.4 33.6,30.4 33.71,30.4 33.8,30.41 33.87,30.41 
				33.88,30.41 33.9,30.37 33.94,30.25 33.97,30.12 33.98,30 33.96,29.86 33.9,29.73 33.82,29.61 33.72,29.51 33.6,29.43 
				33.46,29.37 33.31,29.33 33.14,29.32 32.96,29.32 32.77,29.31 32.57,29.31 32.36,29.32 32.15,29.33 31.94,29.35 31.74,29.37 
				31.54,29.39 31.34,29.42 31.16,29.45 30.99,29.48 30.84,29.51 30.7,29.55 30.58,29.59 30.49,29.64 30.42,29.68 30.88,28.13 
				31.02,28.07 31.16,28.02 31.31,27.97 31.47,27.94 31.62,27.91 31.79,27.88 31.96,27.86 32.13,27.84 32.31,27.83 32.5,27.82 
				32.69,27.82 32.89,27.82 33.09,27.82 33.31,27.82 33.53,27.82 33.76,27.83 33.94,27.84 34.13,27.87 34.33,27.92 34.53,27.98 
				34.73,28.05 34.93,28.14 35.12,28.25 35.3,28.38 35.46,28.52 35.6,28.67 35.73,28.85 35.83,29.04 35.89,29.24 35.93,29.46 
				35.93,29.71 35.89,29.96 35.24,33.36 35.24,33.36 			"/>
		</g>
		<g>
			<path class="st13" d="M31.26,34.93l-0.19-0.02l-0.18-0.03l-0.23-0.06l-0.21-0.06l-0.18-0.09l-0.16-0.1l-0.14-0.1l-0.13-0.12
				l-0.11-0.13l-0.09-0.13l-0.08-0.14l-0.07-0.14l-0.05-0.14l-0.04-0.14l-0.03-0.15l-0.02-0.15l-0.01-0.14l0-0.14l0.02-0.25
				l0.04-0.24l0.07-0.23L29.55,32l0.1-0.21l0.12-0.19l0.14-0.18l0.16-0.16l0.16-0.15l0.18-0.14l0.19-0.12l0.2-0.1l0.21-0.09
				l0.22-0.07l0.22-0.06l0.32-0.05l0.07-0.01l0.07-0.01L32,30.44l0.42-0.05l0.12-0.01l0.1-0.01l0.36-0.02h0.15l0.3,0.01h0.14
				l0.26,0.02l0-0.02l0.04-0.12l0.03-0.13L33.94,30l-0.02-0.14l-0.06-0.12l-0.07-0.11l-0.1-0.09l-0.12-0.08l-0.13-0.05l-0.15-0.04
				l-0.16-0.01l-0.37-0.01h-0.2l-0.2,0.01l-0.21,0.01l-0.41,0.04l-0.39,0.05L31,29.52l-0.15,0.03l-0.14,0.04l-0.11,0.04l-0.15,0.08
				l-0.05-0.04l0.46-1.57L31,28.03l0.14-0.05l0.16-0.05l0.31-0.07l0.34-0.05l0.36-0.03l0.38-0.01h0.62l0.45,0.01l0.18,0.01l0.2,0.03
				l0.2,0.05l0.21,0.06l0.2,0.08l0.2,0.09l0.2,0.11l0.18,0.12l0.16,0.14l0.14,0.16l0.13,0.18l0.1,0.2l0.07,0.21l0.04,0.22l0,0.25
				l-0.04,0.26l-0.65,3.4l-0.26,1.46h-1.69l0.05-0.31l0.05-0.38l-0.1,0.1l-0.13,0.1l-0.14,0.09l-0.16,0.09l-0.33,0.16l-0.18,0.07
				l-0.19,0.06l-0.19,0.05l-0.19,0.04l-0.2,0.03l-0.19,0.01L31.26,34.93z M32.94,30.42l-0.29,0.02l-0.1,0.01l-0.12,0.01l-0.75,0.09
				l-0.22,0.04l-0.22,0.06l-0.21,0.07l-0.2,0.09l-0.19,0.1l-0.18,0.12l-0.18,0.13l-0.16,0.15l-0.15,0.16l-0.13,0.18l-0.11,0.18
				l-0.1,0.2l-0.08,0.22l-0.06,0.22l-0.04,0.23l-0.02,0.25l0,0.14l0.01,0.14l0.02,0.15l0.03,0.15l0.04,0.14l0.05,0.14l0.06,0.14
				l0.08,0.13l0.09,0.13l0.1,0.12l0.13,0.11l0.14,0.1l0.16,0.09l0.18,0.08l0.2,0.06l0.22,0.06l0.17,0.02l0.18,0.02l0.18-0.01
				l0.19-0.01l0.19-0.03l0.18-0.04l0.19-0.04l0.18-0.06l0.17-0.06l0.32-0.15l0.15-0.09l0.13-0.09l0.12-0.09l0.1-0.1l0.09-0.1
				l0.06,0.03l-0.03,0.1l-0.06,0.41l-0.04,0.22h1.55l0.25-1.4l0.65-3.4l0.04-0.26l0-0.24l-0.04-0.21l-0.06-0.2l-0.09-0.19
				l-0.13-0.17l-0.14-0.15l-0.16-0.14l-0.18-0.12l-0.19-0.11l-0.19-0.09l-0.2-0.08l-0.2-0.06l-0.2-0.04l-0.19-0.03l-0.18-0.01
				l-0.45-0.01h-0.62l-0.38,0.01l-0.35,0.03l-0.33,0.05l-0.31,0.06l-0.15,0.04l-0.14,0.05l-0.12,0.05l-0.43,1.45l0.08-0.04
				l0.12-0.04l0.14-0.04l0.32-0.07l0.19-0.03l0.39-0.05l0.41-0.04l0.21-0.01l0.21-0.01h0.2l0.37,0.01l0.17,0.01l0.16,0.04l0.14,0.06
				l0.13,0.09l0.11,0.1l0.08,0.12l0.06,0.13L34.02,30l-0.01,0.13l-0.03,0.14l-0.06,0.19h-0.05l-0.27-0.02h-0.14l-0.3-0.01H32.94z"/>
		</g>
		<g>
			<polygon class="st11" points="33.69,31.68 33.69,31.65 33.66,31.62 33.62,31.6 33.56,31.59 33.49,31.57 33.4,31.57 33.31,31.57 
				33.21,31.57 33.11,31.57 33,31.59 32.89,31.6 32.79,31.61 32.7,31.62 32.61,31.64 32.53,31.66 32.46,31.68 32.41,31.69 
				32.36,31.71 32.29,31.74 32.22,31.77 32.14,31.81 32.05,31.86 31.96,31.9 31.88,31.95 31.79,32.02 31.7,32.08 31.63,32.16 
				31.56,32.23 31.49,32.32 31.45,32.41 31.41,32.51 31.39,32.61 31.38,32.83 31.42,33.01 31.48,33.13 31.56,33.23 31.66,33.3 
				31.77,33.33 31.87,33.35 31.98,33.36 32.17,33.35 32.34,33.33 32.51,33.31 32.66,33.27 32.79,33.23 32.91,33.17 33.02,33.11 
				33.11,33.04 33.2,32.97 33.27,32.9 33.34,32.83 33.39,32.75 33.43,32.67 33.47,32.59 33.51,32.52 33.52,32.45 33.58,32.27 
				33.62,32.05 33.66,31.85 33.69,31.68 33.69,31.68 			"/>
		</g>
		<g>
			<polygon class="st12" points="21.71,34.79 19.96,34.79 21.42,26.34 24.46,26.34 24.75,31.35 26.86,26.34 30.03,26.34 
				28.54,34.79 26.79,34.79 27.9,28.48 27.83,28.48 25.21,34.79 23.24,34.79 23.22,34.52 23.18,33.82 23.12,32.83 23.06,31.68 
				22.99,30.53 22.93,29.52 22.89,28.79 22.88,28.48 22.86,28.48 22.82,28.48 22.78,28.48 22.78,28.48 21.71,34.79 21.71,34.79 			
				"/>
		</g>
		<g>
			<path class="st13" d="M28.57,34.82h-1.82l1.11-6.31h0l-2.62,6.31H23.2l-0.01-0.3l-0.04-0.7l-0.3-5.31h-0.03l-1.07,6.31h-1.82
				l1.47-8.52h3.11l0.28,4.89l2.05-4.89h3.25l-0.01,0.04L28.57,34.82z M26.84,34.75h1.67l1.48-8.37h-3.11l-2.09,4.99l-0.07-0.01
				l-0.29-4.97h-2.98l-1.45,8.37h1.67l1.07-6.31h0.16l0.01,0.34l0.1,1.74l0.19,3.29l0.06,0.93h1.91l2.62-6.31h0.14L26.84,34.75z"/>
		</g>
		<g>
			<polygon class="st12" points="67.16,33.36 66.89,34.79 65.28,34.79 65.29,34.52 65.3,34.29 65.3,34.12 65.31,34.04 65.23,34.14 
				65.13,34.23 65.02,34.32 64.89,34.41 64.75,34.5 64.6,34.58 64.44,34.65 64.28,34.72 64.1,34.77 63.92,34.82 63.74,34.85 
				63.56,34.88 63.38,34.89 63.2,34.9 63.02,34.88 62.85,34.85 62.62,34.79 62.41,34.73 62.23,34.65 62.06,34.55 61.92,34.45 
				61.8,34.33 61.7,34.21 61.61,34.08 61.53,33.95 61.47,33.8 61.42,33.66 61.39,33.52 61.36,33.37 61.34,33.23 61.33,33.08 
				61.33,32.94 61.34,32.69 61.38,32.45 61.44,32.23 61.52,32.01 61.62,31.8 61.74,31.62 61.88,31.44 62.03,31.28 62.19,31.13 
				62.37,30.99 62.55,30.87 62.75,30.77 62.95,30.68 63.16,30.61 63.38,30.55 63.59,30.51 63.61,30.51 63.64,30.5 63.68,30.5 
				63.75,30.49 63.83,30.48 63.92,30.47 64.02,30.46 64.12,30.45 64.23,30.43 64.35,30.42 64.46,30.41 64.57,30.4 64.67,30.4 
				64.76,30.39 64.85,30.38 64.92,30.38 65.07,30.38 65.23,30.39 65.38,30.4 65.52,30.4 65.64,30.4 65.74,30.41 65.8,30.41 
				65.83,30.41 65.84,30.37 65.86,30.25 65.88,30.12 65.89,30 65.86,29.86 65.81,29.73 65.73,29.61 65.63,29.51 65.52,29.43 
				65.38,29.37 65.24,29.33 65.09,29.32 64.91,29.32 64.71,29.31 64.51,29.31 64.31,29.32 64.1,29.33 63.89,29.35 63.68,29.37 
				63.48,29.39 63.29,29.42 63.11,29.45 62.94,29.48 62.78,29.51 62.64,29.55 62.53,29.59 62.44,29.64 62.37,29.68 62.82,28.13 
				62.96,28.07 63.11,28.02 63.25,27.97 63.41,27.94 63.57,27.91 63.73,27.88 63.9,27.86 64.07,27.84 64.25,27.83 64.44,27.82 
				64.62,27.82 64.82,27.82 65.02,27.82 65.23,27.82 65.45,27.82 65.66,27.83 65.85,27.84 66.04,27.87 66.24,27.92 66.44,27.98 
				66.64,28.05 66.84,28.14 67.03,28.25 67.21,28.38 67.38,28.52 67.52,28.67 67.65,28.85 67.75,29.04 67.82,29.24 67.86,29.46 
				67.86,29.71 67.83,29.96 67.16,33.36 67.16,33.36 			"/>
		</g>
		<g>
			<polygon class="st12" points="66.89,34.83 66.93,34.79 67.2,33.37 67.12,33.35 66.85,34.78 66.89,34.74 66.89,34.83 66.93,34.83 
				66.93,34.79 66.89,34.83 66.89,34.83 			"/>
		</g>
		<g>
			<polygon class="st12" points="65.24,34.79 65.28,34.83 66.89,34.83 66.89,34.74 65.28,34.74 65.32,34.79 65.24,34.79 
				65.23,34.83 65.28,34.83 65.24,34.79 65.24,34.79 			"/>
		</g>
		<g>
			<polygon class="st12" points="65.34,34.07 65.29,34.02 65.26,34.12 65.25,34.29 65.25,34.52 65.24,34.79 65.32,34.79 
				65.33,34.52 65.34,34.29 65.34,34.12 65.34,34.07 65.28,34.02 65.34,34.07 65.34,34.07 			"/>
		</g>
		<g>
			<polygon class="st12" points="62.84,34.89 62.84,34.89 63.02,34.92 63.2,34.94 63.38,34.93 63.56,34.92 63.75,34.89 63.93,34.86 
				64.11,34.81 64.29,34.76 64.45,34.69 64.62,34.61 64.77,34.54 64.91,34.45 65.04,34.36 65.16,34.27 65.26,34.16 65.34,34.07 
				65.28,34.02 65.2,34.11 65.11,34.2 64.99,34.29 64.87,34.38 64.73,34.46 64.58,34.54 64.42,34.61 64.26,34.68 64.1,34.73 
				63.92,34.78 63.74,34.81 63.56,34.84 63.38,34.85 63.2,34.86 63.02,34.84 62.85,34.81 62.85,34.81 62.84,34.89 62.84,34.89 			
				"/>
		</g>
		<g>
			<polygon class="st12" points="61.29,32.94 61.29,32.94 61.29,33.08 61.31,33.23 61.32,33.38 61.35,33.53 61.38,33.67 
				61.43,33.82 61.49,33.96 61.58,34.1 61.67,34.23 61.77,34.36 61.9,34.48 62.04,34.58 62.21,34.68 62.4,34.77 62.61,34.83 
				62.84,34.89 62.85,34.81 62.62,34.76 62.42,34.69 62.25,34.61 62.08,34.52 61.95,34.41 61.83,34.31 61.73,34.18 61.64,34.06 
				61.57,33.93 61.51,33.79 61.46,33.66 61.43,33.51 61.4,33.37 61.38,33.23 61.37,33.08 61.38,32.94 61.38,32.94 61.29,32.94 
				61.29,32.94 			"/>
		</g>
		<g>
			<polygon class="st12" points="63.59,30.47 63.59,30.47 63.37,30.51 63.15,30.57 62.94,30.64 62.73,30.73 62.53,30.83 
				62.34,30.96 62.17,31.1 62,31.25 61.85,31.41 61.71,31.59 61.58,31.78 61.49,32 61.4,32.22 61.34,32.45 61.31,32.69 61.29,32.94 
				61.38,32.94 61.38,32.69 61.42,32.46 61.48,32.24 61.56,32.02 61.66,31.82 61.77,31.64 61.91,31.46 62.05,31.3 62.22,31.16 
				62.39,31.03 62.57,30.91 62.77,30.81 62.96,30.72 63.18,30.65 63.38,30.59 63.59,30.55 63.59,30.55 63.59,30.47 63.59,30.47 			
				"/>
		</g>
		<g>
			<polygon class="st12" points="64.92,30.34 64.92,30.34 64.85,30.34 64.76,30.35 64.67,30.36 64.57,30.36 64.46,30.38 
				64.35,30.38 64.23,30.4 64.12,30.41 64.02,30.42 63.92,30.43 63.83,30.44 63.75,30.45 63.68,30.46 63.63,30.47 63.61,30.47 
				63.59,30.47 63.59,30.55 63.61,30.55 63.65,30.54 63.68,30.54 63.75,30.53 63.83,30.52 63.92,30.51 64.02,30.5 64.12,30.49 
				64.23,30.47 64.35,30.46 64.46,30.45 64.57,30.44 64.67,30.43 64.76,30.43 64.85,30.43 64.92,30.43 64.92,30.43 64.92,30.34 
				64.92,30.34 			"/>
		</g>
		<g>
			<polygon class="st12" points="65.79,30.41 65.83,30.38 65.8,30.38 65.74,30.37 65.64,30.36 65.52,30.35 65.38,30.35 65.23,30.35 
				65.07,30.34 64.92,30.34 64.92,30.43 65.07,30.43 65.23,30.43 65.38,30.44 65.52,30.44 65.64,30.44 65.74,30.45 65.8,30.45 
				65.83,30.45 65.86,30.42 65.83,30.45 65.86,30.46 65.86,30.42 65.79,30.41 65.79,30.41 			"/>
		</g>
		<g>
			<polygon class="st12" points="65.85,30 65.85,30 65.84,30.12 65.82,30.25 65.8,30.36 65.79,30.41 65.86,30.42 65.88,30.38 
				65.9,30.26 65.92,30.12 65.94,30 65.93,30 65.85,30 65.85,30 			"/>
		</g>
		<g>
			<polygon class="st12" points="65.09,29.36 65.09,29.37 65.23,29.37 65.37,29.41 65.5,29.47 65.61,29.55 65.7,29.64 65.77,29.75 
				65.83,29.86 65.85,30 65.93,30 65.9,29.85 65.85,29.71 65.76,29.59 65.66,29.48 65.54,29.39 65.39,29.33 65.25,29.3 65.09,29.28 
				65.09,29.28 65.09,29.36 65.09,29.36 			"/>
		</g>
		<g>
			<polygon class="st12" points="62.33,29.67 62.39,29.71 62.46,29.68 62.54,29.63 62.65,29.59 62.79,29.55 62.94,29.52 
				63.11,29.49 63.3,29.46 63.48,29.43 63.68,29.41 63.89,29.39 64.1,29.37 64.31,29.35 64.51,29.35 64.71,29.35 64.91,29.35 
				65.09,29.36 65.09,29.28 64.91,29.28 64.71,29.26 64.51,29.26 64.31,29.28 64.1,29.29 63.89,29.31 63.68,29.33 63.48,29.35 
				63.29,29.38 63.1,29.41 62.93,29.44 62.78,29.48 62.64,29.51 62.51,29.55 62.42,29.6 62.34,29.64 62.4,29.68 62.33,29.67 
				62.33,29.67 			"/>
		</g>
		<g>
			<polygon class="st12" points="62.8,28.09 62.78,28.12 62.33,29.67 62.4,29.68 62.85,28.13 62.83,28.16 62.8,28.09 62.78,28.09 
				62.78,28.12 62.8,28.09 62.8,28.09 			"/>
		</g>
		<g>
			<polygon class="st12" points="65.66,27.79 65.66,27.79 65.45,27.78 65.23,27.77 65.02,27.77 64.82,27.77 64.62,27.77 
				64.44,27.78 64.25,27.79 64.07,27.8 63.9,27.82 63.72,27.84 63.56,27.87 63.4,27.9 63.25,27.93 63.09,27.98 62.94,28.03 
				62.8,28.09 62.83,28.16 62.97,28.11 63.12,28.05 63.26,28.01 63.41,27.98 63.58,27.95 63.74,27.92 63.9,27.89 64.07,27.88 
				64.25,27.87 64.44,27.86 64.62,27.86 64.82,27.86 65.02,27.86 65.23,27.86 65.45,27.87 65.66,27.87 65.66,27.87 65.66,27.79 
				65.66,27.79 			"/>
		</g>
		<g>
			<polygon class="st12" points="67.87,29.97 67.87,29.97 67.9,29.71 67.9,29.46 67.86,29.24 67.79,29.03 67.68,28.83 67.56,28.65 
				67.4,28.49 67.24,28.34 67.05,28.22 66.86,28.11 66.66,28.02 66.46,27.94 66.24,27.88 66.04,27.84 65.85,27.8 65.66,27.79 
				65.66,27.87 65.85,27.88 66.03,27.91 66.23,27.96 66.43,28.02 66.63,28.09 66.82,28.18 67.02,28.29 67.19,28.41 67.35,28.55 
				67.49,28.7 67.62,28.87 67.71,29.05 67.78,29.25 67.83,29.46 67.83,29.71 67.79,29.96 67.79,29.96 67.87,29.97 67.87,29.97 			
				"/>
		</g>
		<g>
			<polygon class="st12" points="67.2,33.37 67.2,33.37 67.87,29.97 67.79,29.96 67.12,33.35 67.12,33.35 67.2,33.37 67.2,33.37 			
				"/>
		</g>
		<g>
			<polygon class="st10" points="65.6,31.68 65.59,31.64 65.56,31.61 65.52,31.59 65.45,31.57 65.38,31.57 65.3,31.56 65.2,31.56 
				65.11,31.57 65,31.58 64.9,31.59 64.8,31.6 64.7,31.62 64.6,31.64 64.52,31.65 64.44,31.67 64.37,31.68 64.33,31.69 64.28,31.71 
				64.21,31.73 64.14,31.75 64.06,31.79 63.98,31.83 63.89,31.87 63.81,31.93 63.72,31.99 63.64,32.06 63.57,32.13 63.5,32.22 
				63.44,32.31 63.39,32.4 63.36,32.5 63.34,32.61 63.33,32.83 63.36,33.01 63.41,33.13 63.49,33.23 63.59,33.3 63.7,33.33 
				63.81,33.35 63.92,33.36 64.11,33.35 64.29,33.33 64.46,33.3 64.6,33.26 64.75,33.21 64.87,33.15 64.98,33.08 65.09,33.01 
				65.18,32.94 65.25,32.85 65.32,32.77 65.38,32.69 65.43,32.61 65.46,32.54 65.48,32.46 65.5,32.39 65.53,32.21 65.56,32.02 
				65.59,31.84 65.6,31.68 65.6,31.68 			"/>
		</g>
		<g>
			<polygon class="st12" points="67.64,34.79 69.45,34.79 69.45,34.79 70.1,31.13 70.13,30.99 70.17,30.85 70.21,30.7 70.26,30.56 
				70.32,30.42 70.4,30.29 70.48,30.16 70.58,30.04 70.7,29.93 70.83,29.82 70.98,29.73 71.14,29.65 71.33,29.59 71.54,29.53 
				71.76,29.5 72.01,29.48 72.1,29.48 72.15,29.48 72.17,29.48 72.17,29.48 72.46,27.83 72.28,27.84 72.11,27.86 71.95,27.89 
				71.79,27.94 71.65,27.99 71.52,28.05 71.39,28.13 71.27,28.2 71.15,28.29 71.04,28.38 70.94,28.49 70.84,28.59 70.74,28.7 
				70.64,28.82 70.55,28.94 70.46,29.06 70.65,27.9 68.84,27.9 67.64,34.79 67.64,34.79 67.64,34.79 			"/>
		</g>
		<g>
			<path class="st13" d="M69.48,34.82H67.6l1.22-6.96h1.88l-0.17,1.05l0.29-0.35l0.21-0.21l0.23-0.18l0.13-0.08l0.13-0.07l0.14-0.07
				l0.14-0.05l0.16-0.05l0.16-0.03l0.18-0.02l0.23-0.02l-0.3,1.73h-0.19l-0.25,0.01l-0.22,0.04l-0.2,0.05l-0.18,0.06l-0.16,0.08
				l-0.14,0.09l-0.13,0.1l-0.11,0.11l-0.1,0.12l-0.08,0.13l-0.08,0.13l-0.06,0.14l-0.05,0.14L70.16,31l-0.02,0.14L69.48,34.82z
				 M67.68,34.75h1.74l0.67-3.77l0.08-0.29l0.05-0.14l0.07-0.14l0.08-0.14l0.08-0.13l0.11-0.13l0.12-0.11l0.13-0.1l0.15-0.1
				l0.17-0.08l0.19-0.07l0.21-0.05l0.23-0.04l0.26-0.01h0.13l0.28-1.58l-0.13,0.01l-0.17,0.02l-0.16,0.03l-0.15,0.04l-0.14,0.05
				l-0.13,0.06l-0.13,0.07l-0.12,0.08l-0.22,0.18l-0.2,0.2l-0.09,0.11l-0.19,0.24l-0.09,0.13l-0.07-0.03l0.19-1.12h-1.73
				L67.68,34.75z"/>
		</g>
		<g>
			<polygon class="st12" points="50.61,34.79 52.42,34.79 52.46,34.79 53.07,31.13 53.1,30.99 53.13,30.85 53.16,30.72 53.21,30.59 
				53.26,30.46 53.32,30.34 53.4,30.22 53.49,30.11 53.59,30.02 53.71,29.92 53.85,29.84 54.01,29.77 54.19,29.71 54.39,29.66 
				54.6,29.63 54.86,29.61 54.87,29.61 54.9,29.62 54.93,29.62 54.96,29.62 55,29.63 55.02,29.64 55.04,29.64 55.05,29.64 
				55.05,29.62 55.07,29.54 55.1,29.42 55.13,29.28 55.18,29.12 55.22,28.94 55.28,28.76 55.34,28.58 55.39,28.45 55.45,28.33 
				55.52,28.21 55.58,28.1 55.64,28 55.68,27.93 55.72,27.88 55.73,27.86 55.72,27.86 55.7,27.86 55.67,27.85 55.62,27.84 
				55.58,27.84 55.52,27.84 55.48,27.83 55.43,27.83 55.23,27.84 55.05,27.86 54.89,27.89 54.73,27.93 54.58,27.98 54.45,28.05 
				54.33,28.11 54.21,28.19 54.1,28.27 54,28.37 53.9,28.47 53.81,28.58 53.71,28.69 53.62,28.81 53.52,28.94 53.43,29.06 
				53.66,27.9 51.81,27.9 50.61,34.79 50.61,34.79 50.61,34.79 			"/>
		</g>
		<g>
			<path class="st13" d="M52.49,34.82h-1.92l1.22-6.96h1.92l-0.21,1.05l0.19-0.25l0.19-0.22l0.1-0.1l0.1-0.1l0.11-0.09l0.12-0.08
				l0.13-0.07l0.14-0.06l0.15-0.05l0.16-0.04l0.17-0.03l0.18-0.02l0.25-0.01l0.1,0.01l0.04,0l0.11,0.02h0.07l-0.09,0.12l-0.17,0.28
				l-0.13,0.24l-0.05,0.12l-0.11,0.36l-0.18,0.73l-0.05,0l-0.07-0.02l-0.02,0l-0.07-0.01l-0.01,0l-0.25,0.02l-0.22,0.03l-0.2,0.05
				l-0.18,0.06l-0.15,0.07l-0.14,0.08l-0.11,0.09l-0.1,0.1l-0.09,0.11l-0.07,0.11l-0.06,0.12l-0.05,0.13l-0.04,0.13L53.14,31
				l-0.03,0.14L52.49,34.82z M50.65,34.75h1.77l0.64-3.77l0.06-0.27l0.05-0.13l0.05-0.13l0.07-0.13l0.08-0.12l0.09-0.11l0.11-0.1
				l0.12-0.1l0.15-0.08l0.16-0.07l0.18-0.06l0.2-0.05l0.22-0.03l0.28-0.02l0.07,0.01l0.02,0l0.06,0.01l0.16-0.67l0.12-0.36
				l0.05-0.13l0.13-0.25l0.18-0.31l-0.05-0.01l-0.04,0l-0.1-0.01l-0.04,0l-0.2,0.01l-0.18,0.02l-0.16,0.03l-0.15,0.04l-0.14,0.05
				l-0.13,0.06l-0.12,0.06l-0.11,0.08l-0.11,0.08l-0.2,0.19l-0.19,0.22l-0.28,0.38l-0.07-0.03l0.22-1.12h-1.77L50.65,34.75z"/>
		</g>
		<g>
			<g>
				<path class="st10" d="M80.1,41.49c-0.06-0.25-0.49-0.17-0.67-0.17v0.74h0.16v-0.32h0.16l0.19,0.32h0.13l-0.19-0.32
					C80.02,41.75,80.13,41.64,80.1,41.49z M79.59,41.42c0.1,0,0.42-0.06,0.39,0.14c-0.02,0.13-0.3,0.12-0.39,0.12V41.42z"/>
			</g>
			<g>
				<path class="st10" d="M79.75,40.82c-0.47,0-0.85,0.38-0.85,0.85c0,0.47,0.38,0.85,0.85,0.85c0.47,0,0.85-0.38,0.85-0.85
					C80.6,41.2,80.22,40.82,79.75,40.82z M79.75,42.37c-0.39,0-0.7-0.31-0.7-0.7c0-0.39,0.31-0.7,0.7-0.7c0.39,0,0.7,0.31,0.7,0.7
					C80.45,42.06,80.13,42.37,79.75,42.37z"/>
			</g>
		</g>
		<g>
			<g>
				<path class="st12" d="M80.07,33.73c-0.06-0.25-0.49-0.17-0.67-0.17v0.74h0.16v-0.32h0.16l0.19,0.32h0.13l-0.19-0.32
					C80,33.99,80.1,33.87,80.07,33.73z M79.56,33.66c0.1,0,0.42-0.06,0.39,0.14c-0.02,0.13-0.3,0.12-0.39,0.12V33.66z"/>
			</g>
			<g>
				<path class="st12" d="M79.72,33.05c-0.47,0-0.85,0.38-0.85,0.85c0,0.47,0.38,0.85,0.85,0.85c0.47,0,0.85-0.38,0.85-0.85
					C80.58,33.44,80.19,33.05,79.72,33.05z M79.72,34.61c-0.39,0-0.7-0.31-0.7-0.7c0-0.39,0.31-0.7,0.7-0.7c0.39,0,0.7,0.31,0.7,0.7
					C80.42,34.29,80.11,34.61,79.72,34.61z"/>
			</g>
		</g>
	</g>
</g>
</svg>
