<?xml version="1.0" encoding="utf-8"?>
<!-- Generator: Adobe Illustrator 24.1.2, SVG Export Plug-In . SVG Version: 6.00 Build 0)  -->
<svg version="1.1" id="Layer_1" xmlns="http://www.w3.org/2000/svg" xmlns:xlink="http://www.w3.org/1999/xlink" x="0px" y="0px"
	 viewBox="0 0 100 60" style="enable-background:new 0 0 100 60;" xml:space="preserve">
<style type="text/css">
	.st0{fill:#F2F2F2;}
	.st1{fill-rule:evenodd;clip-rule:evenodd;fill:#1E398C;}
	.st2{fill-rule:evenodd;clip-rule:evenodd;fill:#00ADEE;}
	.st3{fill:#4285F4;}
	.st4{fill:#34A853;}
	.st5{fill:#FABB05;}
	.st6{fill:#E94235;}
	.st7{fill:#0066B2;}
	.st8{fill:#1E398C;}
	.st9{fill:#F9A533;}
	.st10{fill-rule:evenodd;clip-rule:evenodd;fill:#FBB231;}
	.st11{fill-rule:evenodd;clip-rule:evenodd;fill:#EC1B2E;}
	.st12{fill-rule:evenodd;clip-rule:evenodd;fill:#FFFFFF;}
	.st13{fill:#FFFFFF;}
	.st14{fill:#008000;}
	.st15{fill:#4D4D4D;}
	.st16{fill-rule:evenodd;clip-rule:evenodd;fill:#3A3734;}
	.st17{fill-rule:evenodd;clip-rule:evenodd;fill:#716D6A;}
	.st18{fill-rule:evenodd;clip-rule:evenodd;fill:#0E8635;}
	.st19{fill-rule:evenodd;clip-rule:evenodd;fill:#E97208;}
</style>
<g>
	<g>
		<path class="st0" d="M95,60H5c-2.76,0-5-2.24-5-5V5c0-2.76,2.24-5,5-5h90c2.76,0,5,2.24,5,5v50C100,57.76,97.76,60,95,60z"/>
	</g>
	<g>
		<path class="st16" d="M12.42,39.68h0.57l-0.54,2.22c-0.08,0.33-0.06,0.58,0.05,0.74c0.11,0.16,0.31,0.25,0.61,0.25
			c0.29,0,0.54-0.08,0.73-0.25c0.19-0.16,0.32-0.42,0.4-0.74l0.54-2.22h0.58l-0.54,2.28c-0.12,0.49-0.33,0.86-0.64,1.11
			c-0.3,0.25-0.7,0.37-1.19,0.37c-0.49,0-0.83-0.12-1.01-0.36c-0.18-0.25-0.22-0.62-0.1-1.11L12.42,39.68L12.42,39.68z M81.3,43.34
			l0.87-3.66h1.99l-0.12,0.51h-1.41l-0.22,0.92h1.41l-0.13,0.52h-1.41l-0.28,1.18h1.41l-0.13,0.54L81.3,43.34L81.3,43.34z
			 M81.25,40.57c-0.13-0.14-0.28-0.25-0.44-0.32c-0.16-0.07-0.34-0.11-0.55-0.11c-0.39,0-0.74,0.13-1.04,0.38
			c-0.31,0.25-0.51,0.59-0.61,1c-0.09,0.39-0.05,0.72,0.13,0.98c0.17,0.25,0.44,0.38,0.81,0.38c0.21,0,0.42-0.04,0.63-0.12
			c0.21-0.07,0.42-0.19,0.64-0.34l-0.16,0.67c-0.18,0.12-0.37,0.2-0.57,0.25c-0.2,0.05-0.4,0.08-0.62,0.08
			c-0.27,0-0.52-0.05-0.73-0.14c-0.21-0.09-0.38-0.23-0.52-0.41c-0.14-0.17-0.22-0.38-0.25-0.62c-0.04-0.24-0.03-0.49,0.05-0.76
			c0.06-0.27,0.17-0.52,0.32-0.75c0.15-0.24,0.34-0.44,0.55-0.62c0.22-0.18,0.45-0.32,0.71-0.41c0.25-0.09,0.51-0.14,0.77-0.14
			c0.21,0,0.4,0.03,0.58,0.09c0.17,0.06,0.34,0.15,0.48,0.28L81.25,40.57z M75.6,41.9h0.99l-0.16-0.84
			c-0.01-0.05-0.02-0.12-0.02-0.18c-0.01-0.07-0.01-0.15-0.01-0.23c-0.04,0.08-0.07,0.15-0.12,0.23c-0.04,0.07-0.07,0.14-0.11,0.19
			L75.6,41.9L75.6,41.9z M76.87,43.34l-0.18-0.94h-1.42l-0.64,0.94h-0.61l2.63-3.8l0.82,3.8H76.87z M72.07,43.34l0.87-3.66h1.99
			l-0.12,0.51h-1.41l-0.22,0.91h1.41l-0.13,0.52h-1.41l-0.41,1.72L72.07,43.34L72.07,43.34L72.07,43.34z M70.36,41.24h0.11
			c0.31,0,0.52-0.04,0.64-0.11c0.12-0.07,0.2-0.2,0.25-0.39c0.04-0.2,0.03-0.34-0.06-0.43c-0.09-0.08-0.28-0.13-0.57-0.13H70.6
			L70.36,41.24L70.36,41.24z M70.21,41.7l-0.39,1.63h-0.54l0.87-3.66h0.81c0.24,0,0.42,0.02,0.54,0.05c0.13,0.03,0.23,0.08,0.3,0.15
			c0.09,0.09,0.15,0.2,0.17,0.34c0.03,0.14,0.02,0.29-0.02,0.46c-0.07,0.29-0.19,0.53-0.37,0.69c-0.18,0.16-0.41,0.26-0.68,0.3
			l0.83,1.66h-0.65l-0.79-1.63L70.21,41.7L70.21,41.7z M66.63,43.34l0.87-3.66h2l-0.12,0.51h-1.41l-0.22,0.92h1.41l-0.13,0.52h-1.41
			l-0.28,1.18h1.41l-0.13,0.54L66.63,43.34L66.63,43.34z M66,40.18l-0.75,3.15h-0.58l0.75-3.15h-0.94l0.12-0.51h2.47l-0.12,0.51H66
			L66,40.18z M60.09,43.34l0.91-3.8l1.72,2.23c0.05,0.06,0.09,0.13,0.14,0.2c0.05,0.07,0.09,0.15,0.15,0.24l0.61-2.53h0.54
			l-0.91,3.79l-1.76-2.28c-0.05-0.06-0.09-0.13-0.14-0.19c-0.05-0.07-0.08-0.14-0.11-0.22l-0.61,2.54L60.09,43.34L60.09,43.34
			L60.09,43.34z M58.68,43.34l0.87-3.66h0.58l-0.87,3.66H58.68z M54.4,42.61l0.52-0.22c0.01,0.16,0.05,0.29,0.15,0.37
			c0.1,0.08,0.24,0.13,0.42,0.13c0.17,0,0.32-0.05,0.44-0.15c0.13-0.1,0.21-0.23,0.25-0.39c0.05-0.22-0.07-0.41-0.38-0.57
			c-0.05-0.03-0.07-0.05-0.1-0.05c-0.34-0.2-0.56-0.37-0.65-0.54c-0.09-0.16-0.11-0.35-0.05-0.58c0.07-0.3,0.23-0.54,0.47-0.73
			c0.25-0.18,0.52-0.28,0.84-0.28c0.26,0,0.47,0.05,0.63,0.15c0.15,0.1,0.24,0.25,0.26,0.45l-0.51,0.24
			c-0.05-0.12-0.1-0.2-0.17-0.25c-0.07-0.05-0.16-0.08-0.27-0.08c-0.15,0-0.29,0.05-0.4,0.13c-0.11,0.08-0.18,0.19-0.22,0.34
			c-0.05,0.22,0.1,0.43,0.45,0.62c0.03,0.02,0.05,0.03,0.06,0.04c0.31,0.16,0.52,0.33,0.61,0.49c0.09,0.16,0.11,0.35,0.05,0.6
			c-0.08,0.34-0.25,0.62-0.52,0.83c-0.26,0.2-0.57,0.31-0.93,0.31c-0.3,0-0.54-0.07-0.7-0.22C54.48,43.08,54.39,42.87,54.4,42.61
			L54.4,42.61z M53.8,40.18l-0.75,3.15h-0.58l0.75-3.15h-0.94l0.12-0.51h2.47l-0.12,0.51H53.8z M47.89,43.34l0.91-3.8l1.72,2.23
			c0.05,0.06,0.09,0.13,0.14,0.2c0.04,0.07,0.09,0.15,0.15,0.24l0.61-2.53h0.54l-0.91,3.79l-1.76-2.28
			c-0.05-0.06-0.09-0.13-0.14-0.19c-0.05-0.07-0.08-0.14-0.11-0.22l-0.61,2.54L47.89,43.34L47.89,43.34L47.89,43.34z M45.24,43.34
			l0.87-3.66h1.99l-0.12,0.51h-1.41l-0.22,0.92h1.41l-0.13,0.52h-1.41l-0.28,1.18h1.41l-0.13,0.54L45.24,43.34L45.24,43.34z
			 M44.28,41.54c0-0.03,0.01-0.11,0.03-0.24c0.01-0.11,0.02-0.19,0.03-0.26c-0.04,0.08-0.07,0.16-0.12,0.25
			c-0.05,0.08-0.1,0.17-0.16,0.25l-1.4,1.95l-0.45-1.99c-0.02-0.08-0.04-0.16-0.05-0.24c-0.01-0.07-0.02-0.15-0.02-0.23
			c-0.02,0.07-0.05,0.15-0.07,0.24c-0.03,0.08-0.06,0.17-0.11,0.26l-0.82,1.8H40.6l1.75-3.81l0.5,2.3c0.01,0.04,0.02,0.1,0.03,0.18
			c0.01,0.08,0.03,0.19,0.05,0.32c0.06-0.11,0.15-0.24,0.25-0.4c0.03-0.04,0.05-0.07,0.06-0.1l1.58-2.3l-0.05,3.81h-0.54
			L44.28,41.54L44.28,41.54z M38.75,43.34l0.4-1.67l-0.73-1.98h0.61l0.45,1.24c0.01,0.04,0.02,0.07,0.04,0.13
			c0.02,0.05,0.03,0.11,0.05,0.16c0.04-0.05,0.07-0.11,0.11-0.16c0.04-0.05,0.07-0.1,0.11-0.15l1.06-1.23h0.58l-1.7,1.97l-0.4,1.67
			L38.75,43.34L38.75,43.34L38.75,43.34z M36.05,41.9h0.99l-0.16-0.84c-0.01-0.05-0.02-0.12-0.02-0.18
			c-0.01-0.07-0.01-0.15-0.01-0.23c-0.04,0.08-0.07,0.15-0.12,0.23c-0.04,0.07-0.07,0.14-0.11,0.19L36.05,41.9L36.05,41.9z
			 M37.31,43.34l-0.18-0.94h-1.42l-0.64,0.94h-0.61l2.63-3.8l0.82,3.8H37.31z M33.67,41.21h0.15c0.32,0,0.54-0.04,0.67-0.11
			c0.13-0.07,0.21-0.2,0.25-0.38c0.04-0.19,0.02-0.34-0.07-0.41c-0.1-0.08-0.3-0.12-0.6-0.12h-0.15L33.67,41.21L33.67,41.21z
			 M33.51,41.7l-0.39,1.64h-0.54l0.87-3.66h0.88c0.26,0,0.44,0.02,0.56,0.05c0.12,0.03,0.21,0.07,0.28,0.15
			c0.09,0.08,0.15,0.2,0.18,0.34c0.03,0.15,0.02,0.3-0.02,0.47c-0.05,0.17-0.11,0.34-0.21,0.48c-0.1,0.15-0.22,0.26-0.34,0.34
			c-0.11,0.06-0.23,0.12-0.35,0.15c-0.13,0.03-0.33,0.05-0.58,0.05L33.51,41.7L33.51,41.7L33.51,41.7z M28.09,42.8h0.49
			c0.26,0,0.47-0.02,0.62-0.05c0.15-0.04,0.27-0.1,0.39-0.18c0.16-0.12,0.3-0.26,0.41-0.44c0.11-0.17,0.19-0.38,0.25-0.62
			c0.05-0.24,0.07-0.44,0.05-0.61c-0.03-0.17-0.09-0.33-0.2-0.45c-0.08-0.09-0.18-0.15-0.32-0.18c-0.14-0.04-0.34-0.05-0.64-0.05
			h-0.42L28.09,42.8L28.09,42.8z M27.39,43.34l0.87-3.66h0.78c0.51,0,0.86,0.03,1.05,0.08c0.19,0.05,0.35,0.14,0.48,0.26
			c0.16,0.16,0.27,0.37,0.32,0.62c0.05,0.25,0.03,0.54-0.05,0.86c-0.08,0.33-0.2,0.61-0.36,0.86c-0.16,0.25-0.37,0.45-0.62,0.62
			c-0.18,0.13-0.38,0.21-0.6,0.26c-0.21,0.05-0.53,0.08-0.94,0.08L27.39,43.34L27.39,43.34L27.39,43.34z M24.73,43.34l0.87-3.66
			h1.99l-0.12,0.51h-1.41l-0.22,0.92h1.41l-0.13,0.52h-1.41l-0.28,1.18h1.41l-0.13,0.54L24.73,43.34L24.73,43.34z M23.32,43.34
			l0.87-3.66h0.58l-0.87,3.66H23.32L23.32,43.34z M20.69,43.34l0.87-3.66h1.99l-0.12,0.51h-1.41L21.8,41.1h1.41l-0.13,0.52h-1.41
			l-0.41,1.72L20.69,43.34L20.69,43.34L20.69,43.34z M19.28,43.34l0.87-3.66h0.58l-0.87,3.66H19.28L19.28,43.34z M15.27,43.34
			l0.91-3.8l1.72,2.23c0.05,0.06,0.09,0.13,0.14,0.2c0.05,0.07,0.09,0.15,0.15,0.24l0.61-2.53h0.54l-0.91,3.79l-1.76-2.28
			c-0.05-0.06-0.09-0.13-0.14-0.19c-0.05-0.07-0.08-0.14-0.11-0.22l-0.61,2.54L15.27,43.34L15.27,43.34L15.27,43.34z"/>
		<path class="st17" d="M70.74,36.5h-3.98l5.54-19.99h3.98L70.74,36.5z M37.63,35.25c-0.22,0.79-0.94,1.34-1.76,1.34H15.33
			c-0.56,0-0.98-0.19-1.25-0.57c-0.27-0.38-0.34-0.85-0.17-1.42l5.01-18.04h3.98l-4.47,16.12h15.94l4.47-16.12h3.98L37.63,35.25
			L37.63,35.25z M68.67,17.13c-0.27-0.38-0.7-0.57-1.28-0.57H45.5l-1.08,3.92h19.91l-1.16,4.18H47.24v-0.01h-3.98l-3.3,11.93h3.98
			l2.21-8h17.91c0.56,0,1.09-0.19,1.58-0.57c0.49-0.38,0.82-0.85,0.97-1.42l2.21-8C69,17.99,68.94,17.51,68.67,17.13L68.67,17.13z"
			/>
		<path class="st18" d="M83.15,16.54l5.04,10.02L77.6,36.58l1.26-4.54l5.79-5.47l-2.76-5.48L83.15,16.54z"/>
		<path class="st19" d="M79.62,16.54l5.04,10.02l-10.6,10.02L79.62,16.54z"/>
	</g>
</g>
</svg>
