<svg xmlns="http://www.w3.org/2000/svg" xmlns:xlink="http://www.w3.org/1999/xlink" viewBox="0,0,256,256" width="48px" height="48px" fill-rule="nonzero"><g fill="#f8fbfa" fill-rule="nonzero" stroke="none" stroke-width="1" stroke-linecap="butt" stroke-linejoin="miter" stroke-miterlimit="10" stroke-dasharray="" stroke-dashoffset="0" font-family="none" font-weight="none" font-size="none" text-anchor="none" style="mix-blend-mode: normal"><path d="M0,256v-256h256v256z" id="bgRectangle"></path></g><g fill="#f9fafa" fill-rule="nonzero" stroke="none" stroke-width="1" stroke-linecap="butt" stroke-linejoin="miter" stroke-miterlimit="10" stroke-dasharray="" stroke-dashoffset="0" font-family="none" font-weight="none" font-size="none" text-anchor="none" style="mix-blend-mode: normal"><path d="M128,256c-70.69245,0 -128,-57.30755 -128,-128v0c0,-70.69245 57.30755,-128 128,-128v0c70.69245,0 128,57.30755 128,128v0c0,70.69245 -57.30755,128 -128,128z" id="shape"></path></g><g fill="#00572d" fill-rule="nonzero" stroke="none" stroke-width="1" stroke-linecap="butt" stroke-linejoin="miter" stroke-miterlimit="10" stroke-dasharray="" stroke-dashoffset="0" font-family="none" font-weight="none" font-size="none" text-anchor="none" style="mix-blend-mode: normal"><g transform="scale(4,4)"><path d="M32,10c12.15,0 22,9.85 22,22c0,12.15 -9.85,22 -22,22c-2.358,0 -4.625,-0.38 -6.754,-1.067c0.691,-1.091 2.661,-4.565 3.165,-6.449c0.261,-0.976 1.302,-4.967 1.302,-4.967c0.681,1.299 2.671,2.399 4.789,2.399c6.301,0 10.841,-5.795 10.841,-12.995c0,-6.902 -5.632,-12.067 -12.88,-12.067c-9.016,0 -13.805,6.053 -13.805,12.643c0,3.064 1.631,6.879 4.241,8.094c0.396,0.184 0.608,0.103 0.699,-0.279c0.069,-0.291 0.422,-1.71 0.58,-2.369c0.051,-0.211 0.026,-0.392 -0.145,-0.599c-0.863,-1.047 -1.555,-2.972 -1.555,-4.768c0,-4.608 3.489,-9.067 9.434,-9.067c5.133,0 8.727,3.498 8.727,8.5c0,5.652 -2.854,9.567 -6.568,9.567c-2.051,0 -3.586,-1.696 -3.094,-3.775c0.589,-2.484 1.73,-5.164 1.73,-6.956c0,-1.605 -0.861,-2.943 -2.643,-2.943c-2.097,0 -3.78,2.169 -3.78,5.074c0,1.85 0.625,3.102 0.625,3.102c0,0 -2.07,8.754 -2.45,10.385c-0.359,1.544 -0.146,5.87 -0.036,7.17c-8.411,-3.092 -14.423,-11.15 -14.423,-20.633c0,-12.15 9.85,-22 22,-22z"></path></g></g></svg>