<?xml version="1.0" encoding="utf-8"?>
<!-- Generator: Adobe Illustrator 24.1.2, SVG Export Plug-In . SVG Version: 6.00 Build 0)  -->
<svg version="1.1" id="Layer_1" xmlns="http://www.w3.org/2000/svg" xmlns:xlink="http://www.w3.org/1999/xlink" x="0px" y="0px"
	 viewBox="0 0 100 60" style="enable-background:new 0 0 100 60;" xml:space="preserve">
<style type="text/css">
	.st0{fill:#F2F2F2;}
	.st1{fill-rule:evenodd;clip-rule:evenodd;fill:#1E398C;}
	.st2{fill-rule:evenodd;clip-rule:evenodd;fill:#00ADEE;}
	.st3{fill:#4285F4;}
	.st4{fill:#34A853;}
	.st5{fill:#FABB05;}
	.st6{fill:#E94235;}
	.st7{fill:#1E398C;}
	.st8{fill:#0066B2;}
	.st9{fill:#F5F5F5;}
	.st10{fill:#F9A533;}
	.st11{fill:#E6E6E6;}
	.st12{fill-rule:evenodd;clip-rule:evenodd;fill:#FBB231;}
	.st13{fill-rule:evenodd;clip-rule:evenodd;fill:#EC1B2E;}
	.st14{fill-rule:evenodd;clip-rule:evenodd;fill:#FFFFFF;}
	.st15{fill:#FFFFFF;}
	.st16{fill:#008000;}
	.st17{fill:#4D4D4D;}
</style>
<g>
	<path class="st0" d="M95,60H5c-2.76,0-5-2.24-5-5V5c0-2.76,2.24-5,5-5h90c2.76,0,5,2.24,5,5v50C100,57.76,97.76,60,95,60z"/>
	<g>
		<g>
			<path class="st1" d="M12.12,22.75c0-0.53,0.36-0.79,0.79-0.79h7.75c2.38,0.27,4.04,1.48,4.2,4.66v4.3c0,0.64-0.04,1.18-0.22,1.8
				c-0.62,2.07-2.1,3.1-4.31,3.24H17c0,1.76,0,3.51,0,5.27c0,0.4-0.33,0.59-0.73,0.59c-1.16,0-2.33,0-3.49,0
				c-0.42,0-0.74-0.24-0.74-0.71L12.12,22.75L12.12,22.75z M17.04,26.84h2.06c0.46,0,0.84,0.38,0.84,0.85v2.49
				c0,0.46-0.38,0.85-0.84,0.85h-2.06V26.84L17.04,26.84z"/>
			<path class="st1" d="M28.67,21.98h5.41c3.17,0.18,4.88,1.85,4.84,5.3v12.78c0,0.99-1,1.74-1.86,1.74h-7.1
				c-2.15,0-3.58-1.68-3.93-3.32c-0.34-1.58-0.09-3.49-0.09-5.11c0-2.49,1.65-4.96,4.4-4.96h2.89c0.84-0.04,0.8-1.88,0-1.82h-4.51
				c-0.46,0-0.78-0.24-0.82-0.71c0-1.12,0-2.23,0-3.35C27.91,22.11,28.26,21.98,28.67,21.98L28.67,21.98z M31.66,33.03h1.65
				c0.39,0,0.71,0.32,0.71,0.71v2.88c0,0.39-0.32,0.71-0.71,0.71h-1.65c-0.39,0-0.71-0.32-0.71-0.71v-2.88
				C30.95,33.35,31.27,33.03,31.66,33.03L31.66,33.03z"/>
			<path class="st1" d="M40.59,22.88v8.07c0.2,2.53,2.47,4.42,4.94,4.42h2.29c0.94,0,0.89,1.59,0,1.59h-4.95
				c-0.54,0-0.73,0.28-0.73,0.75v3.55c0,0.36,0.29,0.63,0.67,0.63h4.58c3.82,0,6-1.83,6-5.94V22.57c0-0.44-0.28-0.61-0.54-0.61H49
				c-0.35,0-0.56,0.38-0.56,0.67v7.34c0,0.31-0.18,0.5-0.46,0.5h-1.82c-0.42,0-0.65-0.23-0.65-0.63v-7.08
				c0-0.47-0.19-0.81-0.71-0.81c-1.23,0-2.46,0-3.69,0C40.69,21.94,40.59,22.36,40.59,22.88L40.59,22.88z"/>
			<path class="st2" d="M55.31,26.2v-3.49c0-0.38,0.31-0.68,0.68-0.68h0.84c2.16-0.45,2.68-1.72,4-3.15
				c0.81-0.88,1.53-1.11,2.05-0.18v3.33h1.98c0.38,0,0.68,0.31,0.68,0.68v3.49c0,0.37-0.31,0.68-0.68,0.68h-1.98v14.3
				c0,0.38-0.31,0.68-0.68,0.68h-3.49c-0.37,0-0.68-0.31-0.68-0.68v-14.3h-2.04C55.62,26.88,55.31,26.57,55.31,26.2L55.31,26.2z"/>
			<path class="st2" d="M80.03,40.95c0,0.47-0.39,0.85-0.85,0.85h-3.27c-0.47,0-0.85-0.38-0.85-0.85V30.79v-2.96
				c0.03-1.42-2.83-1.64-2.83,0v13.12c0,0.47-0.38,0.85-0.85,0.85h-3.27c-0.47,0-0.85-0.38-0.85-0.85v-18.2
				c0-0.47,0.38-0.85,0.85-0.85h3.27c0.47,0,0.85,0.38,0.85,0.85v0.25c1.91-1.83,5.22-1.54,6.98,0.36c3.32-3.8,9-0.42,8.73,3.76
				c0,4.61-0.04,9.18-0.04,13.83c0,0.47-0.39,0.85-0.85,0.85h-3.27c-0.47,0-0.85-0.38-0.85-0.85c0-4.41,0-8.71,0-13.04
				c-0.19-1.82-2.94-1.39-2.93,0C80,32.25,80.03,36.58,80.03,40.95L80.03,40.95z"/>
		</g>
	</g>
</g>
</svg>
