<?xml version="1.0" encoding="utf-8"?>
<!-- Generator: Adobe Illustrator 24.1.2, SVG Export Plug-In . SVG Version: 6.00 Build 0)  -->
<svg version="1.1" id="Layer_1" xmlns="http://www.w3.org/2000/svg" xmlns:xlink="http://www.w3.org/1999/xlink" x="0px" y="0px"
	 viewBox="0 0 100 60" style="enable-background:new 0 0 100 60;" xml:space="preserve">
<style type="text/css">
	.st0{fill:#F2F2F2;}
	.st1{fill-rule:evenodd;clip-rule:evenodd;fill:#1E398C;}
	.st2{fill-rule:evenodd;clip-rule:evenodd;fill:#00ADEE;}
	.st3{fill:#4285F4;}
	.st4{fill:#34A853;}
	.st5{fill:#FABB05;}
	.st6{fill:#E94235;}
	.st7{fill:#0066B2;}
	.st8{fill:#1E398C;}
	.st9{fill:#F9A533;}
	.st10{fill:#E6E6E6;}
	.st11{fill-rule:evenodd;clip-rule:evenodd;fill:#FBB231;}
	.st12{fill-rule:evenodd;clip-rule:evenodd;fill:#EC1B2E;}
	.st13{fill-rule:evenodd;clip-rule:evenodd;fill:#FFFFFF;}
	.st14{fill:#FFFFFF;}
	.st15{fill:#008000;}
	.st16{fill:#4D4D4D;}
</style>
<g>
	<path class="st0" d="M95,60H5c-2.76,0-5-2.24-5-5V5c0-2.76,2.24-5,5-5h90c2.76,0,5,2.24,5,5v50C100,57.76,97.76,60,95,60z"/>
	<g>
		<g>
			<g>
				<polygon class="st7" points="45.69,40.17 40.4,40.17 43.71,19.85 49,19.85 				"/>
				<path class="st7" d="M35.95,19.85L30.9,33.82l-0.6-3.01l0,0l-1.78-9.14c0,0-0.21-1.83-2.51-1.83h-8.34l-0.1,0.34
					c0,0,2.55,0.53,5.53,2.32l4.6,17.65h5.51l8.42-20.32H35.95z"/>
				<path class="st7" d="M77.56,40.17h4.86l-4.24-20.32h-4.25c-1.96,0-2.44,1.51-2.44,1.51L63.6,40.17h5.51l1.1-3.02h6.73
					L77.56,40.17z M71.74,32.98l2.78-7.6l1.56,7.6H71.74z"/>
				<path class="st7" d="M64.01,24.73l0.75-4.36c0,0-2.33-0.89-4.76-0.89c-2.63,0-8.86,1.15-8.86,6.73c0,5.25,7.32,5.32,7.32,8.07
					s-6.56,2.26-8.73,0.52l-0.79,4.56c0,0,2.36,1.15,5.97,1.15c3.61,0,9.06-1.87,9.06-6.96c0-5.28-7.38-5.78-7.38-8.07
					C56.59,23.19,61.75,23.49,64.01,24.73z"/>
			</g>
			<path class="st9" d="M30.31,30.81l-1.78-9.14c0,0-0.21-1.83-2.51-1.83h-8.34l-0.1,0.34c0,0,4.01,0.83,7.85,3.94
				C29.11,27.11,30.31,30.81,30.31,30.81z"/>
		</g>
	</g>
</g>
</svg>
